<svg width="763" height="667" viewBox="0 0 763 667" fill="none" xmlns="http://www.w3.org/2000/svg">
<g filter="url(#filter0_f_0_1)">
<rect x="684.096" y="529.7" width="369.285" height="216.031" transform="rotate(171.009 684.096 529.7)" fill="url(#paint0_linear_0_1)"/>
</g>
<rect x="267" y="351.073" width="406.497" height="257.149" rx="16.8438" transform="rotate(-8.78356 267 351.073)" fill="#18181B"/>
<mask id="mask0_0_1" style="mask-type:alpha" maskUnits="userSpaceOnUse" x="269" y="291" width="437" height="312">
<rect x="267" y="351.073" width="406.497" height="257.149" rx="16.8438" transform="rotate(-8.78356 267 351.073)" fill="white"/>
</mask>
<g mask="url(#mask0_0_1)">
<g opacity="0.18">
<line x1="261.82" y1="344.618" x2="619.848" y2="558.588" stroke="white" stroke-width="1.12292"/>
<line x1="256.615" y1="347.695" x2="614.643" y2="561.665" stroke="white" stroke-width="1.12292"/>
<line x1="251.41" y1="350.772" x2="609.437" y2="564.742" stroke="white" stroke-width="1.12292"/>
<line x1="246.203" y1="353.849" x2="604.23" y2="567.819" stroke="white" stroke-width="1.12292"/>
<line x1="240.998" y1="356.926" x2="599.025" y2="570.896" stroke="white" stroke-width="1.12292"/>
<line x1="235.792" y1="360.003" x2="593.819" y2="573.972" stroke="white" stroke-width="1.12292"/>
<line x1="230.586" y1="363.08" x2="588.614" y2="577.049" stroke="white" stroke-width="1.12292"/>
<line x1="225.381" y1="366.156" x2="583.409" y2="580.126" stroke="white" stroke-width="1.12292"/>
<line x1="220.174" y1="369.233" x2="578.201" y2="583.203" stroke="white" stroke-width="1.12292"/>
<line x1="214.969" y1="372.31" x2="572.996" y2="586.28" stroke="white" stroke-width="1.12292"/>
<line x1="209.763" y1="375.387" x2="567.79" y2="589.357" stroke="white" stroke-width="1.12292"/>
<line x1="204.557" y1="378.464" x2="562.585" y2="592.434" stroke="white" stroke-width="1.12292"/>
<line x1="199.35" y1="381.541" x2="557.378" y2="595.51" stroke="white" stroke-width="1.12292"/>
<line x1="194.145" y1="384.618" x2="552.172" y2="598.587" stroke="white" stroke-width="1.12292"/>
<line x1="188.94" y1="387.695" x2="546.967" y2="601.664" stroke="white" stroke-width="1.12292"/>
<line x1="183.734" y1="390.771" x2="541.761" y2="604.741" stroke="white" stroke-width="1.12292"/>
<line x1="178.528" y1="393.848" x2="536.556" y2="607.818" stroke="white" stroke-width="1.12292"/>
<line x1="173.321" y1="396.925" x2="531.349" y2="610.895" stroke="white" stroke-width="1.12292"/>
<line x1="168.116" y1="400.002" x2="526.144" y2="613.972" stroke="white" stroke-width="1.12292"/>
<line x1="162.911" y1="403.079" x2="520.938" y2="617.049" stroke="white" stroke-width="1.12292"/>
<line x1="157.705" y1="406.156" x2="515.732" y2="620.125" stroke="white" stroke-width="1.12292"/>
<line x1="152.499" y1="409.233" x2="510.526" y2="623.202" stroke="white" stroke-width="1.12292"/>
<line x1="147.292" y1="412.309" x2="505.32" y2="626.279" stroke="white" stroke-width="1.12292"/>
<line x1="142.087" y1="415.386" x2="500.115" y2="629.356" stroke="white" stroke-width="1.12292"/>
<line x1="136.882" y1="418.463" x2="494.909" y2="632.433" stroke="white" stroke-width="1.12292"/>
<line x1="131.676" y1="421.54" x2="489.703" y2="635.51" stroke="white" stroke-width="1.12292"/>
<line x1="126.47" y1="424.617" x2="484.497" y2="638.587" stroke="white" stroke-width="1.12292"/>
<line x1="121.264" y1="427.694" x2="479.291" y2="641.663" stroke="white" stroke-width="1.12292"/>
<line x1="116.058" y1="430.771" x2="474.086" y2="644.74" stroke="white" stroke-width="1.12292"/>
<line x1="110.853" y1="433.847" x2="468.881" y2="647.817" stroke="white" stroke-width="1.12292"/>
<line x1="105.646" y1="436.924" x2="463.673" y2="650.894" stroke="white" stroke-width="1.12292"/>
<line x1="268.308" y1="342.48" x2="626.336" y2="556.45" stroke="white" stroke-width="1.12292"/>
<line x1="274.795" y1="340.341" x2="632.822" y2="554.311" stroke="white" stroke-width="1.12292"/>
<line x1="281.282" y1="338.203" x2="639.31" y2="552.172" stroke="white" stroke-width="1.12292"/>
<line x1="287.768" y1="336.064" x2="645.795" y2="550.034" stroke="white" stroke-width="1.12292"/>
<line x1="294.256" y1="333.926" x2="652.283" y2="547.895" stroke="white" stroke-width="1.12292"/>
<line x1="300.743" y1="331.787" x2="658.771" y2="545.757" stroke="white" stroke-width="1.12292"/>
<line x1="307.23" y1="329.648" x2="665.257" y2="543.618" stroke="white" stroke-width="1.12292"/>
<line x1="313.718" y1="327.51" x2="671.745" y2="541.479" stroke="white" stroke-width="1.12292"/>
<line x1="320.204" y1="325.371" x2="678.232" y2="539.341" stroke="white" stroke-width="1.12292"/>
<line x1="326.691" y1="323.233" x2="684.718" y2="537.202" stroke="white" stroke-width="1.12292"/>
<line x1="333.178" y1="321.094" x2="691.205" y2="535.064" stroke="white" stroke-width="1.12292"/>
<line x1="339.665" y1="318.955" x2="697.693" y2="532.925" stroke="white" stroke-width="1.12292"/>
<line x1="346.153" y1="316.817" x2="704.18" y2="530.787" stroke="white" stroke-width="1.12292"/>
<line x1="352.639" y1="314.678" x2="710.667" y2="528.648" stroke="white" stroke-width="1.12292"/>
<line x1="359.126" y1="312.54" x2="717.154" y2="526.509" stroke="white" stroke-width="1.12292"/>
<line x1="365.613" y1="310.401" x2="723.64" y2="524.371" stroke="white" stroke-width="1.12292"/>
<line x1="372.1" y1="308.262" x2="730.128" y2="522.232" stroke="white" stroke-width="1.12292"/>
<line x1="378.587" y1="306.124" x2="736.615" y2="520.094" stroke="white" stroke-width="1.12292"/>
<line x1="385.075" y1="303.985" x2="743.102" y2="517.955" stroke="white" stroke-width="1.12292"/>
<line x1="391.561" y1="301.847" x2="749.589" y2="515.816" stroke="white" stroke-width="1.12292"/>
<line x1="398.048" y1="299.708" x2="756.076" y2="513.678" stroke="white" stroke-width="1.12292"/>
<line x1="404.536" y1="297.57" x2="762.563" y2="511.539" stroke="white" stroke-width="1.12292"/>
<line x1="411.022" y1="295.431" x2="769.05" y2="509.401" stroke="white" stroke-width="1.12292"/>
</g>
<rect x="267" y="351.073" width="406.497" height="257.149" rx="16.8438" transform="rotate(-8.78356 267 351.073)" fill="url(#paint1_linear_0_1)"/>
<g filter="url(#filter1_f_0_1)">
<circle cx="285.714" cy="376.588" r="101.063" transform="rotate(-8.78356 285.714 376.588)" fill="#B4C9FF"/>
</g>
<g filter="url(#filter2_f_0_1)">
<circle cx="690.655" cy="526.496" r="101.063" transform="rotate(-8.78356 690.655 526.496)" fill="white"/>
</g>
</g>
<path d="M376.636 472.337L371.961 442.081C371.359 438.183 366.94 435.62 362.109 436.367L318.596 443.09C313.763 443.837 310.323 447.615 310.925 451.512L315.6 481.768C316.202 485.666 320.623 488.226 325.455 487.48L368.967 480.756C373.799 480.009 377.238 476.234 376.636 472.337ZM325.367 486.913C320.922 487.6 316.857 485.243 316.303 481.66L311.628 451.403C311.074 447.818 314.239 444.344 318.684 443.657L362.196 436.934C366.639 436.247 370.705 438.604 371.259 442.189L375.934 472.446C376.487 476.029 373.322 479.503 368.88 480.19L325.367 486.913Z" fill="#3F3F46"/>
<path d="M368.882 480.191L325.37 486.914C323.233 487.244 321.079 486.876 319.379 485.891C317.679 484.907 316.574 483.386 316.306 481.663L311.63 451.404C311.076 447.819 314.241 444.345 318.686 443.658L362.198 436.935C366.641 436.248 370.707 438.606 371.261 442.19L375.936 472.449C376.489 476.03 373.324 479.504 368.882 480.191Z" fill="url(#paint2_linear_0_1)"/>
<path d="M314.923 476.609L314.836 476.042L334.873 472.946C336.2 472.74 337.407 472.117 338.229 471.215C339.051 470.313 339.421 469.204 339.257 468.133L337.594 457.37C337.427 456.299 336.74 455.354 335.684 454.742C334.628 454.13 333.289 453.901 331.961 454.105L311.924 457.201L311.837 456.633L331.874 453.537C333.388 453.305 334.915 453.566 336.119 454.265C337.323 454.963 338.106 456.041 338.296 457.261L339.959 468.025C340.147 469.246 339.725 470.51 338.788 471.539C337.851 472.568 336.474 473.278 334.96 473.513L314.923 476.609Z" fill="#383335"/>
<path d="M351.593 466.227L349.93 455.464C349.743 454.242 350.164 452.979 351.102 451.949C352.039 450.92 353.416 450.21 354.93 449.975L372.726 447.225L372.813 447.793L355.018 450.542C353.69 450.749 352.482 451.371 351.66 452.273C350.838 453.176 350.469 454.284 350.633 455.355L352.296 466.119C352.463 467.189 353.15 468.134 354.206 468.747C355.262 469.359 356.601 469.588 357.929 469.384L375.724 466.634L375.812 467.201L358.016 469.951C356.502 470.183 354.975 469.922 353.771 469.224C352.567 468.526 351.783 467.448 351.593 466.227Z" fill="#383335"/>
<path d="M350.403 456.195L350.315 455.628L337.979 457.534L338.067 458.101L350.403 456.195Z" fill="#383335"/>
<path d="M351.911 465.954L351.823 465.387L339.488 467.293L339.575 467.86L351.911 465.954Z" fill="#383335"/>
<path d="M332.605 486.086L330.719 473.878L330.016 473.987L331.903 486.194L332.605 486.086Z" fill="#383335"/>
<path d="M327.72 454.47L325.833 442.262L325.131 442.371L327.017 454.578L327.72 454.47Z" fill="#383335"/>
<path d="M363.738 481.275L361.852 469.068L361.149 469.177L363.036 481.384L363.738 481.275Z" fill="#383335"/>
<path d="M358.853 449.659L356.967 437.452L356.264 437.56L358.151 449.768L358.853 449.659Z" fill="#383335"/>
<path d="M374 457.6L373.912 457.033L351.077 460.561L351.164 461.128L374 457.6Z" fill="#383335"/>
<path d="M338.605 463.069L338.517 462.502L313.339 466.392L313.426 466.959L338.605 463.069Z" fill="#383335"/>
<path d="M622.494 526.474L614.345 527.733L614.601 495.643L622.752 494.384L622.494 526.474ZM602.652 497.489L598.209 520.22L596.573 515.726L596.574 515.728L591.657 502.074C591.657 502.074 590.89 499.307 587.355 499.853L574.51 501.838L574.442 502.391C574.442 502.391 578.496 502.601 583.519 504.652L594.802 530.753L603.294 529.441L611.423 496.134L602.652 497.489ZM671.591 518.888L679.074 517.731L667.713 487.436L661.161 488.448C658.136 488.915 657.76 491.362 657.76 491.362L650.081 522.211L658.577 520.898L659.557 515.986L669.918 514.385L671.591 518.888ZM660.912 509.2L663.384 496.824L667.603 508.166L660.912 509.2ZM647.045 498.337L647.169 491.435C647.169 491.435 643.37 490.625 639.628 491.203C635.584 491.828 626.253 495.08 627.581 503.675C628.83 511.762 640.118 510.121 640.775 514.369C641.431 518.616 631.202 519.418 627.452 517.254L627.326 524.47C627.326 524.47 631.238 525.676 636.798 524.817C642.36 523.957 650.305 519.781 649.094 511.944C647.836 503.805 636.346 504.804 635.799 501.266C635.253 497.726 643.26 496.955 647.045 498.337Z" fill="white"/>
<path d="M596.575 515.727L591.657 502.073C591.657 502.073 590.89 499.306 587.356 499.852L574.511 501.837L574.442 502.39C574.442 502.39 580.814 502.716 587.476 506.594C593.846 510.301 596.575 515.727 596.575 515.727Z" fill="#E6A540"/>
<path d="M329.213 548.664L328.59 544.635L324.743 540.043L326.635 539.751L329.59 543.344L328.919 543.447L330.639 539.132L332.532 538.84L330.261 544.365L330.885 548.405L329.213 548.664ZM336.062 547.606L334.656 538.511L340.699 537.578L340.925 539.042L336.543 539.72L336.903 542.051L341.041 541.412L341.268 542.877L337.13 543.516L337.495 545.884L341.878 545.207L342.104 546.672L336.062 547.606ZM347.701 545.957C347.123 546.046 346.57 546.024 346.041 545.889C345.52 545.753 345.051 545.525 344.635 545.206C344.226 544.878 343.901 544.474 343.661 543.994L344.948 543.183C345.248 543.67 345.629 544.032 346.09 544.269C346.551 544.498 347.041 544.572 347.562 544.491C347.855 544.446 348.1 544.362 348.298 544.24C348.503 544.108 348.65 543.952 348.738 543.772C348.835 543.59 348.866 543.386 348.831 543.158C348.789 542.889 348.674 542.682 348.485 542.536C348.303 542.381 348.045 542.279 347.713 542.231L345.88 541.939C345.138 541.829 344.554 541.581 344.128 541.197C343.702 540.813 343.444 540.324 343.352 539.73C343.271 539.209 343.326 538.73 343.517 538.292C343.716 537.853 344.026 537.488 344.448 537.198C344.877 536.899 345.388 536.703 345.982 536.611C346.527 536.527 347.043 536.547 347.529 536.672C348.014 536.789 348.445 536.993 348.823 537.285C349.209 537.567 349.518 537.923 349.751 538.354L348.478 539.175C348.229 538.747 347.906 538.439 347.51 538.25C347.113 538.053 346.679 537.991 346.207 538.064C345.93 538.107 345.693 538.193 345.497 538.324C345.299 538.446 345.152 538.602 345.057 538.792C344.968 538.972 344.941 539.176 344.976 539.404C345.015 539.656 345.131 539.867 345.324 540.038C345.516 540.2 345.787 540.308 346.137 540.362L347.89 540.628C348.651 540.753 349.242 540.994 349.665 541.354C350.095 541.713 350.357 542.197 350.452 542.807C350.532 543.328 350.469 543.809 350.262 544.249C350.055 544.689 349.733 545.06 349.296 545.361C348.86 545.661 348.328 545.86 347.701 545.957ZM356.715 544.564C356.137 544.654 355.583 544.631 355.054 544.496C354.533 544.36 354.065 544.132 353.649 543.813C353.24 543.485 352.915 543.081 352.674 542.601L353.961 541.79C354.261 542.277 354.642 542.639 355.104 542.876C355.564 543.105 356.055 543.179 356.576 543.099C356.869 543.053 357.114 542.97 357.312 542.847C357.516 542.716 357.663 542.56 357.752 542.379C357.849 542.198 357.88 541.993 357.844 541.765C357.803 541.497 357.688 541.289 357.498 541.144C357.316 540.989 357.059 540.887 356.726 540.838L354.894 540.546C354.152 540.436 353.568 540.189 353.142 539.804C352.716 539.42 352.457 538.931 352.365 538.337C352.285 537.816 352.34 537.337 352.531 536.899C352.729 536.46 353.04 536.096 353.461 535.806C353.89 535.506 354.401 535.31 354.996 535.219C355.541 535.134 356.056 535.155 356.542 535.28C357.027 535.396 357.458 535.6 357.837 535.892C358.222 536.174 358.531 536.53 358.764 536.961L357.492 537.783C357.242 537.354 356.919 537.046 356.524 536.857C356.127 536.66 355.692 536.598 355.22 536.671C354.943 536.714 354.707 536.801 354.51 536.931C354.312 537.053 354.166 537.209 354.07 537.399C353.981 537.579 353.955 537.783 353.99 538.011C354.029 538.263 354.145 538.475 354.338 538.645C354.529 538.807 354.8 538.915 355.15 538.969L356.904 539.236C357.664 539.36 358.256 539.602 358.678 539.961C359.108 540.32 359.371 540.804 359.465 541.415C359.546 541.936 359.482 542.416 359.275 542.856C359.068 543.297 358.747 543.667 358.31 543.968C357.873 544.269 357.341 544.468 356.715 544.564ZM362.458 543.527L361.053 534.433L362.713 534.176L364.118 543.27L362.458 543.527ZM371.273 542.315C370.622 542.416 370.001 542.391 369.411 542.24C368.83 542.088 368.299 541.833 367.818 541.474C367.346 541.114 366.952 540.666 366.636 540.132C366.32 539.597 366.11 538.992 366.005 538.317C365.901 537.641 365.915 537.002 366.046 536.398C366.185 535.785 366.426 535.24 366.768 534.762C367.118 534.274 367.552 533.874 368.07 533.561C368.587 533.239 369.171 533.028 369.822 532.928C370.473 532.827 371.072 532.847 371.619 532.987C372.174 533.127 372.658 533.352 373.073 533.663C373.486 533.965 373.804 534.321 374.025 534.728L372.643 535.654C372.402 535.225 372.055 534.895 371.603 534.665C371.15 534.427 370.634 534.352 370.056 534.441C369.486 534.529 369.003 534.742 368.605 535.078C368.215 535.413 367.934 535.836 367.763 536.345C367.6 536.854 367.568 537.426 367.666 538.06C367.764 538.695 367.968 539.234 368.278 539.678C368.595 540.112 368.99 540.43 369.463 540.632C369.944 540.833 370.469 540.889 371.039 540.801C371.617 540.712 372.086 540.489 372.448 540.134C372.808 539.77 373.039 539.347 373.139 538.864L374.736 539.33C374.648 539.785 374.453 540.224 374.152 540.645C373.849 541.059 373.454 541.415 372.967 541.716C372.489 542.015 371.924 542.214 371.273 542.315ZM376.796 541.312L378.528 531.732L380.677 531.4L385.219 540.01L383.412 540.289L382.464 538.436L378.948 538.979L378.591 541.034L376.796 541.312ZM379.198 537.441L381.761 537.045L379.548 532.75L380.012 532.678L379.198 537.441ZM389.876 539.291L391.608 529.711L393.756 529.379L398.299 537.989L396.492 538.268L395.543 536.415L392.028 536.958L391.67 539.013L389.876 539.291ZM392.277 535.42L394.841 535.024L392.627 530.729L393.091 530.657L392.277 535.42ZM400.421 537.661L399.015 528.567L400.309 528.367L406.356 534.332L405.705 534.57L404.643 527.697L406.303 527.441L407.708 536.535L406.402 536.737L400.422 530.712L401.011 530.483L402.081 537.405L400.421 537.661ZM409.834 536.207L411.566 526.628L413.714 526.296L418.257 534.905L416.45 535.184L415.501 533.331L411.986 533.874L411.628 535.929L409.834 536.207ZM412.236 532.336L414.799 531.94L412.586 527.645L413.049 527.573L412.236 532.336ZM424.341 534.115C423.69 534.216 423.07 534.191 422.48 534.04C421.89 533.89 421.355 533.635 420.874 533.276C420.394 532.917 419.992 532.471 419.668 531.938C419.352 531.403 419.142 530.798 419.037 530.123C418.933 529.447 418.946 528.808 419.078 528.204C419.217 527.591 419.457 527.046 419.8 526.568C420.15 526.08 420.584 525.68 421.102 525.367C421.619 525.045 422.203 524.834 422.854 524.733C423.505 524.633 424.104 524.653 424.651 524.793C425.205 524.933 425.69 525.158 426.105 525.469C426.518 525.771 426.835 526.126 427.057 526.534L425.689 527.47C425.445 527.024 425.097 526.687 424.645 526.456C424.193 526.226 423.674 526.157 423.088 526.247C422.518 526.335 422.034 526.547 421.636 526.884C421.247 527.219 420.966 527.642 420.795 528.151C420.632 528.66 420.599 529.231 420.697 529.866C420.795 530.501 421.004 531.04 421.322 531.482C421.647 531.915 422.05 532.232 422.531 532.433C423.012 532.633 423.537 532.689 424.107 532.601C424.571 532.53 424.984 532.374 425.347 532.135C425.709 531.887 425.982 531.578 426.167 531.208C426.35 530.83 426.406 530.409 426.334 529.945L426.226 529.249L427.085 529.792L423.716 530.312L423.499 528.908L427.772 528.248L427.913 529.164C428.021 529.864 427.999 530.5 427.846 531.074C427.693 531.647 427.441 532.149 427.091 532.578C426.747 532.998 426.338 533.34 425.862 533.605C425.385 533.862 424.878 534.032 424.341 534.115ZM434.504 532.545C433.804 532.653 433.159 532.603 432.568 532.394C431.986 532.184 431.5 531.847 431.112 531.382C430.724 530.917 430.479 530.359 430.378 529.708L429.475 523.86L431.135 523.604L432.025 529.366C432.083 529.74 432.217 530.065 432.426 530.341C432.644 530.616 432.912 530.816 433.231 530.942C433.549 531.059 433.896 531.089 434.27 531.031C434.653 530.972 434.974 530.839 435.233 530.632C435.5 530.416 435.691 530.145 435.807 529.819C435.932 529.491 435.965 529.14 435.907 528.766L435.017 523.004L436.677 522.748L437.581 528.595C437.681 529.246 437.617 529.852 437.387 530.412C437.157 530.973 436.791 531.441 436.292 531.819C435.8 532.195 435.204 532.437 434.504 532.545ZM439.867 531.566L441.599 521.987L443.747 521.655L448.29 530.265L446.483 530.544L445.534 528.691L442.018 529.234L441.661 531.289L439.867 531.566ZM442.268 527.696L444.832 527.299L442.618 523.004L443.082 522.933L442.268 527.696Z" fill="white"/>
<path opacity="0.5" d="M330.322 571.217L328.917 562.123L330.504 561.878L334.624 565.978L333.867 566.095L336.485 560.953L338.072 560.708L339.477 569.803L337.805 570.061L336.692 562.859L337.363 562.917L334.62 568.053L334.425 568.084L330.344 564.002L330.869 563.758L331.982 570.961L330.322 571.217ZM342.327 569.362L340.922 560.268L344.304 559.745C344.922 559.65 345.485 559.679 345.992 559.834C346.506 559.98 346.931 560.248 347.266 560.637C347.6 561.019 347.814 561.515 347.909 562.126C348.005 562.752 347.937 563.308 347.704 563.794C347.479 564.279 347.13 564.666 346.659 564.956L349.31 568.283L347.43 568.574L344.579 564.927L345.752 565.396L343.469 565.749L343.988 569.106L342.327 569.362ZM343.243 564.284L344.988 564.014C345.289 563.968 345.541 563.87 345.743 563.722C345.944 563.566 346.089 563.373 346.178 563.143C346.268 562.912 346.291 562.659 346.248 562.382C346.204 562.097 346.106 561.862 345.952 561.678C345.797 561.485 345.601 561.349 345.364 561.269C345.125 561.181 344.856 561.16 344.554 561.206L342.809 561.476L343.243 564.284ZM351.508 567.944L350.103 558.849L351.763 558.593L352.495 563.329L352.018 563.24L355.181 558.065L357.268 557.742L354.307 562.599L354.223 561.412L358.783 566.82L356.83 567.121L353.77 563.495L352.774 565.136L353.168 567.687L351.508 567.944ZM364.182 565.985L362.777 556.891L365.743 556.433C366.704 556.284 367.568 556.351 368.336 556.632C369.112 556.904 369.747 557.351 370.244 557.975C370.739 558.59 371.055 559.345 371.194 560.24C371.331 561.127 371.257 561.947 370.974 562.699C370.689 563.443 370.218 564.065 369.562 564.567C368.913 565.058 368.109 565.379 367.149 565.527L364.182 565.985ZM365.616 564.264L366.959 564.056C367.577 563.961 368.091 563.752 368.499 563.431C368.915 563.1 369.214 562.687 369.396 562.193C369.576 561.69 369.618 561.125 369.521 560.498C369.423 559.864 369.213 559.338 368.89 558.921C368.567 558.504 368.159 558.205 367.664 558.023C367.177 557.84 366.625 557.796 366.006 557.892L364.663 558.099L365.616 564.264ZM374.328 564.418L372.923 555.323L374.583 555.067L375.988 564.161L374.328 564.418ZM383.179 563.2C382.528 563.301 381.908 563.276 381.318 563.125C380.728 562.975 380.193 562.72 379.712 562.361C379.232 562.002 378.83 561.556 378.506 561.022C378.19 560.488 377.98 559.883 377.875 559.208C377.771 558.532 377.785 557.893 377.916 557.289C378.055 556.676 378.296 556.13 378.638 555.653C378.988 555.165 379.422 554.765 379.94 554.451C380.457 554.13 381.041 553.919 381.692 553.818C382.343 553.718 382.942 553.738 383.489 553.878C384.043 554.017 384.528 554.243 384.943 554.553C385.356 554.856 385.674 555.211 385.895 555.619L384.527 556.555C384.283 556.109 383.935 555.771 383.483 555.541C383.031 555.311 382.512 555.241 381.926 555.332C381.356 555.42 380.872 555.632 380.474 555.969C380.085 556.304 379.804 556.726 379.633 557.236C379.47 557.745 379.437 558.316 379.535 558.951C379.634 559.586 379.842 560.124 380.16 560.567C380.485 561 380.888 561.317 381.369 561.517C381.85 561.718 382.376 561.774 382.945 561.686C383.409 561.615 383.823 561.459 384.186 561.22C384.547 560.972 384.82 560.663 385.005 560.293C385.188 559.915 385.244 559.494 385.172 559.03L385.065 558.334L385.923 558.876L382.554 559.397L382.337 557.993L386.61 557.333L386.751 558.249C386.859 558.948 386.837 559.585 386.684 560.159C386.531 560.732 386.279 561.234 385.929 561.663C385.585 562.082 385.176 562.425 384.7 562.69C384.223 562.947 383.716 563.117 383.179 563.2ZM389.816 562.025L388.411 552.93L390.071 552.674L391.476 561.768L389.816 562.025ZM395.946 561.077L394.768 553.448L392.412 553.812L392.185 552.347L398.533 551.366L398.759 552.831L396.44 553.189L397.619 560.819L395.946 561.077ZM400.708 560.342L402.44 550.762L404.589 550.43L409.131 559.04L407.325 559.319L406.376 557.466L402.86 558.009L402.503 560.064L400.708 560.342ZM403.11 556.471L405.674 556.075L403.46 551.78L403.924 551.708L403.11 556.471ZM411.253 558.712L409.848 549.618L411.508 549.361L412.687 556.991L416.581 556.389L416.808 557.854L411.253 558.712ZM425.174 556.711C424.613 556.798 424.105 556.772 423.65 556.634C423.195 556.496 422.818 556.263 422.517 555.934C422.223 555.597 422.038 555.179 421.961 554.683C421.897 554.268 421.915 553.898 422.015 553.575C422.122 553.242 422.269 552.952 422.456 552.707C422.641 552.453 422.829 552.241 423.02 552.07C423.218 551.897 423.384 551.759 423.518 551.655L424.246 551.105C424.485 550.927 424.699 550.752 424.889 550.581C425.087 550.4 425.237 550.215 425.341 550.024C425.443 549.825 425.476 549.607 425.44 549.371C425.398 549.102 425.274 548.892 425.068 548.741C424.868 548.58 424.634 548.521 424.365 548.562C424.105 548.602 423.895 548.731 423.737 548.947C423.586 549.153 423.531 549.395 423.574 549.672C423.605 549.875 423.681 550.068 423.801 550.249C423.929 550.429 424.071 550.595 424.227 550.746C424.383 550.888 424.532 551.015 424.674 551.127L430.327 555.765L428.411 556.061L423.657 552.234C423.439 552.059 423.218 551.868 422.994 551.661C422.769 551.446 422.573 551.201 422.406 550.927C422.238 550.653 422.127 550.337 422.072 549.979C421.999 549.507 422.045 549.079 422.211 548.695C422.383 548.302 422.638 547.983 422.976 547.739C423.32 547.486 423.712 547.326 424.151 547.258C424.599 547.189 425.017 547.224 425.405 547.364C425.801 547.503 426.132 547.727 426.396 548.036C426.669 548.344 426.839 548.717 426.907 549.157C426.976 549.604 426.929 550.003 426.767 550.353C426.611 550.694 426.404 550.997 426.145 551.262C425.892 551.517 425.647 551.739 425.41 551.925L424.667 552.54C424.503 552.665 424.331 552.821 424.152 553.007C423.979 553.184 423.84 553.389 423.734 553.622C423.627 553.846 423.597 554.105 423.642 554.398C423.696 554.748 423.845 555.009 424.088 555.179C424.337 555.341 424.65 555.392 425.024 555.335C425.252 555.299 425.45 555.231 425.617 555.13C425.784 555.021 425.927 554.899 426.048 554.764C426.168 554.62 426.266 554.476 426.344 554.331C426.42 554.177 426.49 554.037 426.554 553.911L427.661 551.615L429.334 551.356L428.082 554.175C427.991 554.397 427.875 554.64 427.732 554.904C427.59 555.167 427.408 555.424 427.189 555.675C426.968 555.917 426.693 556.135 426.365 556.327C426.043 556.51 425.646 556.638 425.174 556.711ZM439.61 554.481C439.032 554.57 438.478 554.547 437.949 554.412C437.428 554.276 436.96 554.049 436.544 553.73C436.135 553.401 435.81 552.997 435.569 552.518L436.856 551.707C437.156 552.193 437.537 552.555 437.999 552.792C438.459 553.021 438.95 553.095 439.471 553.015C439.764 552.97 440.009 552.886 440.207 552.764C440.411 552.632 440.558 552.476 440.647 552.296C440.744 552.114 440.775 551.909 440.739 551.681C440.698 551.413 440.583 551.206 440.393 551.06C440.211 550.905 439.954 550.803 439.621 550.754L437.789 550.463C437.047 550.352 436.463 550.105 436.037 549.721C435.611 549.337 435.352 548.848 435.26 548.253C435.18 547.733 435.235 547.253 435.425 546.816C435.624 546.377 435.935 546.012 436.356 545.722C436.785 545.422 437.296 545.227 437.89 545.135C438.436 545.051 438.951 545.071 439.437 545.196C439.922 545.313 440.353 545.517 440.732 545.808C441.117 546.09 441.426 546.447 441.659 546.877L440.386 547.699C440.137 547.271 439.814 546.962 439.419 546.774C439.022 546.577 438.587 546.515 438.115 546.588C437.838 546.63 437.602 546.717 437.405 546.847C437.207 546.969 437.061 547.125 436.965 547.315C436.876 547.496 436.849 547.7 436.885 547.927C436.924 548.18 437.04 548.391 437.233 548.561C437.424 548.723 437.695 548.831 438.045 548.886L439.799 549.152C440.559 549.276 441.151 549.518 441.573 549.878C442.003 550.236 442.266 550.721 442.36 551.331C442.441 551.852 442.377 552.332 442.17 552.773C441.963 553.213 441.642 553.583 441.205 553.884C440.768 554.185 440.236 554.384 439.61 554.481ZM444.513 553.573L446.245 543.994L448.394 543.662L452.936 552.272L451.13 552.551L450.181 550.698L446.665 551.241L446.308 553.296L444.513 553.573ZM446.915 549.702L449.478 549.306L447.265 545.011L447.729 544.94L446.915 549.702ZM455.058 551.944L453.653 542.849L455.313 542.593L456.492 550.222L460.386 549.621L460.612 551.086L455.058 551.944ZM462.796 550.748L461.391 541.654L467.433 540.72L467.66 542.185L463.277 542.862L463.638 545.194L467.776 544.554L468.002 546.019L463.864 546.659L464.23 549.027L468.612 548.35L468.839 549.814L462.796 550.748ZM474.436 549.1C473.858 549.189 473.304 549.166 472.775 549.031C472.254 548.895 471.786 548.667 471.37 548.348C470.961 548.02 470.636 547.616 470.395 547.137L471.682 546.325C471.982 546.812 472.363 547.174 472.825 547.411C473.285 547.64 473.776 547.714 474.297 547.634C474.589 547.588 474.835 547.505 475.033 547.383C475.237 547.251 475.384 547.095 475.473 546.915C475.57 546.733 475.601 546.528 475.565 546.3C475.524 546.032 475.409 545.825 475.219 545.679C475.037 545.524 474.78 545.422 474.447 545.373L472.615 545.081C471.873 544.971 471.289 544.724 470.863 544.34C470.437 543.956 470.178 543.466 470.086 542.872C470.006 542.352 470.061 541.872 470.251 541.434C470.45 540.995 470.761 540.631 471.182 540.341C471.611 540.041 472.122 539.846 472.716 539.754C473.262 539.669 473.777 539.69 474.263 539.815C474.748 539.931 475.179 540.136 475.558 540.427C475.943 540.709 476.252 541.066 476.485 541.496L475.212 542.318C474.963 541.89 474.64 541.581 474.245 541.392C473.847 541.195 473.413 541.133 472.941 541.206C472.664 541.249 472.428 541.336 472.231 541.466C472.033 541.588 471.887 541.744 471.791 541.934C471.702 542.114 471.675 542.319 471.711 542.546C471.75 542.799 471.866 543.01 472.059 543.18C472.25 543.342 472.521 543.45 472.871 543.504L474.625 543.771C475.385 543.895 475.977 544.137 476.399 544.497C476.829 544.855 477.092 545.34 477.186 545.95C477.266 546.471 477.203 546.951 476.996 547.392C476.789 547.832 476.467 548.202 476.031 548.503C475.594 548.804 475.062 549.003 474.436 549.1Z" fill="white"/>
<path d="M459.278 367.391L462.91 351.831L465.449 351.439L461.817 366.999L459.278 367.391Z" fill="#F43F5E"/>
<path d="M477.011 362.688C476.17 362.818 475.365 362.784 474.595 362.588C473.838 362.39 473.156 362.059 472.551 361.595C471.956 361.117 471.484 360.53 471.134 359.832L473.006 358.652C473.442 359.361 473.996 359.887 474.668 360.232C475.337 360.565 476.051 360.673 476.808 360.555C477.235 360.49 477.591 360.368 477.879 360.19C478.177 359.999 478.39 359.772 478.519 359.509C478.66 359.245 478.705 358.947 478.654 358.616C478.594 358.225 478.426 357.924 478.151 357.712C477.886 357.486 477.511 357.338 477.028 357.267L474.362 356.843C473.283 356.682 472.434 356.323 471.814 355.764C471.194 355.205 470.818 354.494 470.684 353.63C470.567 352.872 470.647 352.175 470.925 351.538C471.214 350.9 471.665 350.37 472.279 349.947C472.902 349.512 473.646 349.227 474.51 349.094C475.303 348.971 476.053 349.001 476.76 349.182C477.465 349.352 478.093 349.649 478.643 350.073C479.203 350.483 479.653 351.002 479.992 351.628L478.141 352.823C477.778 352.2 477.309 351.752 476.733 351.477C476.155 351.191 475.523 351.101 474.837 351.207C474.434 351.269 474.09 351.395 473.804 351.584C473.517 351.762 473.303 351.989 473.164 352.265C473.035 352.527 472.996 352.824 473.047 353.156C473.104 353.523 473.272 353.83 473.553 354.077C473.832 354.313 474.226 354.47 474.735 354.549L477.286 354.937C478.392 355.117 479.252 355.469 479.867 355.992C480.493 356.514 480.874 357.218 481.011 358.106C481.128 358.864 481.036 359.563 480.735 360.203C480.434 360.844 479.966 361.383 479.331 361.82C478.695 362.258 477.922 362.547 477.011 362.688ZM491.836 360.397C490.996 360.527 490.191 360.494 489.421 360.297C488.663 360.099 487.982 359.768 487.377 359.304C486.782 358.827 486.309 358.239 485.959 357.542L487.831 356.362C488.268 357.07 488.822 357.596 489.493 357.941C490.163 358.274 490.876 358.382 491.634 358.265C492.06 358.199 492.417 358.077 492.705 357.899C493.002 357.708 493.216 357.481 493.345 357.219C493.486 356.954 493.531 356.657 493.48 356.325C493.419 355.935 493.251 355.633 492.976 355.421C492.711 355.196 492.337 355.047 491.853 354.977L489.188 354.552C488.109 354.392 487.259 354.032 486.64 353.473C486.02 352.915 485.643 352.203 485.51 351.339C485.393 350.581 485.473 349.884 485.75 349.248C486.039 348.609 486.491 348.079 487.104 347.657C487.728 347.221 488.472 346.936 489.336 346.803C490.129 346.68 490.879 346.71 491.586 346.892C492.291 347.061 492.918 347.358 493.468 347.782C494.029 348.193 494.479 348.711 494.818 349.337L492.966 350.532C492.603 349.91 492.134 349.461 491.558 349.186C490.981 348.9 490.349 348.81 489.662 348.916C489.26 348.978 488.916 349.104 488.63 349.294C488.342 349.471 488.129 349.698 487.99 349.974C487.86 350.237 487.821 350.533 487.873 350.865C487.929 351.232 488.098 351.539 488.379 351.787C488.658 352.022 489.051 352.18 489.561 352.258L492.111 352.646C493.218 352.827 494.078 353.178 494.692 353.702C495.318 354.223 495.7 354.928 495.837 355.815C495.954 356.573 495.862 357.272 495.561 357.912C495.26 358.553 494.792 359.092 494.156 359.529C493.521 359.967 492.748 360.256 491.836 360.397ZM500.684 358.812L503.203 344.878L506.328 344.395L512.936 356.919L510.308 357.325L508.928 354.629L503.814 355.419L503.294 358.408L500.684 358.812ZM504.177 353.181L507.906 352.605L504.686 346.358L505.361 346.254L504.177 353.181ZM520.473 355.754L513.812 343.239L516.44 342.833L521.755 353.229L521.24 353.308L523.17 341.793L525.798 341.387L523.243 355.326L520.473 355.754ZM532.649 353.873L530.605 340.644L533.02 340.271L535.064 353.499L532.649 353.873ZM540.938 352.592L538.894 339.364L540.776 339.073L549.57 347.749L548.624 348.095L547.079 338.099L549.494 337.726L551.538 350.954L549.638 351.247L540.939 342.484L541.797 342.151L543.353 352.219L540.938 352.592ZM563.729 349.288C562.782 349.435 561.879 349.398 561.021 349.18C560.163 348.961 559.385 348.59 558.686 348.068C557.987 347.546 557.402 346.897 556.931 346.121C556.471 345.344 556.166 344.464 556.014 343.481C555.862 342.499 555.882 341.568 556.074 340.69C556.275 339.799 556.625 339.005 557.124 338.31C557.632 337.601 558.264 337.019 559.017 336.563C559.769 336.096 560.619 335.789 561.566 335.642C562.513 335.496 563.384 335.525 564.179 335.729C564.986 335.932 565.691 336.259 566.294 336.712C566.895 337.152 567.357 337.668 567.679 338.261L565.689 339.623C565.335 338.975 564.829 338.483 564.171 338.149C563.513 337.814 562.758 337.712 561.906 337.844C561.077 337.972 560.373 338.281 559.795 338.77C559.228 339.258 558.82 339.872 558.571 340.614C558.333 341.353 558.286 342.185 558.429 343.108C558.571 344.031 558.874 344.815 559.337 345.458C559.81 346.088 560.397 346.549 561.096 346.841C561.796 347.133 562.56 347.215 563.388 347.087C564.063 346.982 564.665 346.756 565.192 346.408C565.719 346.048 566.116 345.599 566.384 345.06C566.651 344.51 566.732 343.898 566.627 343.223L566.471 342.211L567.72 343L562.819 343.757L562.504 341.715L568.719 340.755L568.924 342.086C569.082 343.104 569.049 344.031 568.826 344.865C568.604 345.699 568.238 346.428 567.728 347.052C567.229 347.663 566.633 348.161 565.941 348.547C565.247 348.92 564.51 349.168 563.729 349.288ZM579.853 346.797C579.013 346.927 578.208 346.894 577.438 346.697C576.68 346.499 575.999 346.168 575.394 345.704C574.799 345.227 574.326 344.639 573.976 343.942L575.848 342.762C576.285 343.47 576.839 343.996 577.51 344.341C578.18 344.674 578.893 344.782 579.651 344.665C580.077 344.599 580.434 344.477 580.722 344.299C581.019 344.108 581.233 343.881 581.362 343.619C581.503 343.355 581.548 343.057 581.497 342.725C581.436 342.335 581.268 342.033 580.993 341.821C580.728 341.596 580.354 341.447 579.87 341.377L577.205 340.952C576.126 340.792 575.276 340.432 574.657 339.873C574.037 339.315 573.66 338.603 573.527 337.739C573.41 336.982 573.49 336.284 573.767 335.648C574.056 335.009 574.508 334.479 575.121 334.057C575.745 333.621 576.489 333.337 577.353 333.203C578.146 333.08 578.896 333.11 579.603 333.292C580.308 333.462 580.935 333.758 581.486 334.182C582.046 334.593 582.496 335.111 582.835 335.737L580.983 336.932C580.62 336.31 580.151 335.861 579.575 335.587C578.998 335.3 578.366 335.21 577.679 335.316C577.277 335.378 576.933 335.504 576.647 335.694C576.359 335.871 576.146 336.098 576.007 336.374C575.877 336.637 575.839 336.934 575.89 337.265C575.946 337.632 576.115 337.939 576.396 338.187C576.675 338.422 577.069 338.58 577.578 338.659L580.128 339.046C581.235 339.227 582.095 339.579 582.709 340.102C583.335 340.623 583.717 341.328 583.854 342.216C583.971 342.973 583.879 343.672 583.578 344.313C583.277 344.953 582.809 345.492 582.173 345.929C581.538 346.367 580.765 346.656 579.853 346.797ZM596.408 344.021L594.364 330.793L599.939 329.931C600.815 329.796 601.585 329.835 602.248 330.047C602.921 330.246 603.466 330.598 603.884 331.103C604.311 331.595 604.585 332.231 604.706 333.012C604.799 333.616 604.721 334.21 604.472 334.794C604.233 335.364 603.785 335.876 603.128 336.329L602.955 335.21C603.644 335.358 604.207 335.586 604.642 335.895C605.078 336.203 605.407 336.57 605.63 336.996C605.854 337.422 606.004 337.884 606.081 338.381C606.277 339.648 606.01 340.707 605.281 341.559C604.562 342.397 603.463 342.931 601.983 343.159L596.408 344.021ZM598.493 341.517L601.903 340.99C602.53 340.893 603.001 340.645 603.315 340.245C603.638 339.831 603.756 339.334 603.666 338.754C603.576 338.174 603.315 337.736 602.881 337.439C602.459 337.141 601.935 337.04 601.307 337.137L597.898 337.664L598.493 341.517ZM597.572 335.551L600.856 335.043C601.354 334.967 601.728 334.763 601.98 334.434C602.23 334.092 602.32 333.69 602.249 333.229C602.177 332.767 601.973 332.423 601.635 332.196C601.297 331.97 600.879 331.895 600.382 331.972L597.097 332.479L597.572 335.551ZM610.931 341.777L613.45 327.844L616.575 327.361L623.182 339.884L620.554 340.29L619.174 337.594L614.061 338.385L613.541 341.374L610.931 341.777ZM614.424 336.147L618.153 335.571L614.933 329.323L615.608 329.219L614.424 336.147ZM627.984 339.142L625.94 325.914L627.822 325.623L636.616 334.299L635.67 334.646L634.125 324.649L636.54 324.276L638.584 337.504L636.684 337.798L627.985 329.034L628.843 328.701L630.399 338.769L627.984 339.142ZM644.474 336.594L642.43 323.366L644.845 322.993L645.909 329.882L645.217 329.753L649.816 322.224L652.853 321.755L648.545 328.82L648.424 327.094L655.056 334.959L652.216 335.398L647.764 330.123L646.315 332.51L646.889 336.221L644.474 336.594Z" fill="white"/>
<g filter="url(#filter3_f_0_1)">
<rect x="168.305" y="84.9744" width="376.088" height="209.277" transform="rotate(16.72 168.305 84.9744)" fill="url(#paint3_linear_0_1)"/>
</g>
<g filter="url(#filter4_d_0_1)">
<rect x="149.483" y="42" width="436.721" height="276.268" rx="18.0962" transform="rotate(16.7205 149.483 42)" fill="white"/>
</g>
<mask id="mask1_0_1" style="mask-type:alpha" maskUnits="userSpaceOnUse" x="74" y="46" width="490" height="382">
<rect x="149.483" y="42" width="436.721" height="276.268" rx="18.0962" transform="rotate(16.7205 149.483 42)" fill="white"/>
</mask>
<g mask="url(#mask1_0_1)">
<g opacity="0.18">
<line x1="147.446" y1="33.3451" x2="395.632" y2="406.444" stroke="#18181B" stroke-width="1.20641"/>
<line x1="140.975" y1="33.9205" x2="389.16" y2="407.019" stroke="#18181B" stroke-width="1.20641"/>
<line x1="134.503" y1="34.4958" x2="382.689" y2="407.594" stroke="#18181B" stroke-width="1.20641"/>
<line x1="128.033" y1="35.0712" x2="376.218" y2="408.17" stroke="#18181B" stroke-width="1.20641"/>
<line x1="121.561" y1="35.6466" x2="369.747" y2="408.745" stroke="#18181B" stroke-width="1.20641"/>
<line x1="115.09" y1="36.2219" x2="363.275" y2="409.32" stroke="#18181B" stroke-width="1.20641"/>
<line x1="108.618" y1="36.7973" x2="356.804" y2="409.896" stroke="#18181B" stroke-width="1.20641"/>
<line x1="102.148" y1="37.3727" x2="350.333" y2="410.471" stroke="#18181B" stroke-width="1.20641"/>
<line x1="95.6763" y1="37.948" x2="343.862" y2="411.046" stroke="#18181B" stroke-width="1.20641"/>
<line x1="89.2048" y1="38.5234" x2="337.391" y2="411.622" stroke="#18181B" stroke-width="1.20641"/>
<line x1="82.7333" y1="39.0988" x2="330.919" y2="412.197" stroke="#18181B" stroke-width="1.20641"/>
<line x1="76.2629" y1="39.6741" x2="324.449" y2="412.773" stroke="#18181B" stroke-width="1.20641"/>
<line x1="69.7914" y1="40.2495" x2="317.977" y2="413.348" stroke="#18181B" stroke-width="1.20641"/>
<line x1="63.3199" y1="40.8248" x2="311.506" y2="413.923" stroke="#18181B" stroke-width="1.20641"/>
<line x1="56.8484" y1="41.4002" x2="305.034" y2="414.499" stroke="#18181B" stroke-width="1.20641"/>
<line x1="50.3779" y1="41.9756" x2="298.564" y2="415.074" stroke="#18181B" stroke-width="1.20641"/>
<line x1="43.9065" y1="42.551" x2="292.092" y2="415.649" stroke="#18181B" stroke-width="1.20641"/>
<line x1="37.435" y1="43.1263" x2="285.621" y2="416.225" stroke="#18181B" stroke-width="1.20641"/>
<line x1="30.9635" y1="43.7017" x2="279.149" y2="416.8" stroke="#18181B" stroke-width="1.20641"/>
<line x1="24.493" y1="44.2771" x2="272.679" y2="417.375" stroke="#18181B" stroke-width="1.20641"/>
<line x1="18.0215" y1="44.8524" x2="266.207" y2="417.951" stroke="#18181B" stroke-width="1.20641"/>
<line x1="11.55" y1="45.4278" x2="259.736" y2="418.526" stroke="#18181B" stroke-width="1.20641"/>
<line x1="5.07853" y1="46.0031" x2="253.264" y2="419.102" stroke="#18181B" stroke-width="1.20641"/>
<line x1="-1.39193" y1="46.5785" x2="246.794" y2="419.677" stroke="#18181B" stroke-width="1.20641"/>
<line x1="-7.86342" y1="47.1539" x2="240.322" y2="420.252" stroke="#18181B" stroke-width="1.20641"/>
<line x1="-14.3349" y1="47.7292" x2="233.851" y2="420.828" stroke="#18181B" stroke-width="1.20641"/>
<line x1="-20.8064" y1="48.3046" x2="227.379" y2="421.403" stroke="#18181B" stroke-width="1.20641"/>
<line x1="-27.2758" y1="48.88" x2="220.91" y2="421.978" stroke="#18181B" stroke-width="1.20641"/>
<line x1="-33.7473" y1="49.4553" x2="214.438" y2="422.554" stroke="#18181B" stroke-width="1.20641"/>
<line x1="-40.2198" y1="50.0307" x2="207.966" y2="423.129" stroke="#18181B" stroke-width="1.20641"/>
<line x1="-46.6892" y1="50.6061" x2="201.496" y2="423.704" stroke="#18181B" stroke-width="1.20641"/>
<line x1="154.726" y1="34.2723" x2="402.911" y2="407.371" stroke="#18181B" stroke-width="1.20641"/>
<line x1="162.004" y1="35.1994" x2="410.19" y2="408.298" stroke="#18181B" stroke-width="1.20641"/>
<line x1="169.284" y1="36.1265" x2="417.47" y2="409.225" stroke="#18181B" stroke-width="1.20641"/>
<line x1="176.564" y1="37.0536" x2="424.749" y2="410.152" stroke="#18181B" stroke-width="1.20641"/>
<line x1="183.843" y1="37.9808" x2="432.029" y2="411.079" stroke="#18181B" stroke-width="1.20641"/>
<line x1="191.123" y1="38.9079" x2="439.309" y2="412.006" stroke="#18181B" stroke-width="1.20641"/>
<line x1="198.403" y1="39.835" x2="446.588" y2="412.933" stroke="#18181B" stroke-width="1.20641"/>
<line x1="205.681" y1="40.7621" x2="453.867" y2="413.861" stroke="#18181B" stroke-width="1.20641"/>
<line x1="212.961" y1="41.6893" x2="461.147" y2="414.788" stroke="#18181B" stroke-width="1.20641"/>
<line x1="220.241" y1="42.6164" x2="468.426" y2="415.715" stroke="#18181B" stroke-width="1.20641"/>
<line x1="227.52" y1="43.5435" x2="475.706" y2="416.642" stroke="#18181B" stroke-width="1.20641"/>
<line x1="234.8" y1="44.4707" x2="482.986" y2="417.569" stroke="#18181B" stroke-width="1.20641"/>
<line x1="242.08" y1="45.3978" x2="490.265" y2="418.496" stroke="#18181B" stroke-width="1.20641"/>
<line x1="249.358" y1="46.3249" x2="497.544" y2="419.423" stroke="#18181B" stroke-width="1.20641"/>
<line x1="256.638" y1="47.2521" x2="504.824" y2="420.35" stroke="#18181B" stroke-width="1.20641"/>
<line x1="263.918" y1="48.1792" x2="512.103" y2="421.278" stroke="#18181B" stroke-width="1.20641"/>
<line x1="271.197" y1="49.1063" x2="519.383" y2="422.205" stroke="#18181B" stroke-width="1.20641"/>
<line x1="278.477" y1="50.0334" x2="526.663" y2="423.132" stroke="#18181B" stroke-width="1.20641"/>
<line x1="285.757" y1="50.9606" x2="533.942" y2="424.059" stroke="#18181B" stroke-width="1.20641"/>
<line x1="293.035" y1="51.8877" x2="541.221" y2="424.986" stroke="#18181B" stroke-width="1.20641"/>
<line x1="300.315" y1="52.8148" x2="548.501" y2="425.913" stroke="#18181B" stroke-width="1.20641"/>
<line x1="307.595" y1="53.742" x2="555.78" y2="426.84" stroke="#18181B" stroke-width="1.20641"/>
<line x1="314.875" y1="54.6691" x2="563.061" y2="427.768" stroke="#18181B" stroke-width="1.20641"/>
</g>
<rect x="149.483" y="42" width="436.721" height="276.268" rx="18.0962" transform="rotate(16.7205 149.483 42)" fill="url(#paint4_linear_0_1)"/>
<g filter="url(#filter5_f_0_1)">
<circle cx="155.826" cy="75.3973" r="108.577" transform="rotate(16.7205 155.826 75.3973)" fill="#D2D2D2"/>
</g>
<g filter="url(#filter6_f_0_1)">
<circle cx="479.136" cy="408.08" r="108.577" transform="rotate(16.7205 479.136 408.08)" fill="#C8C8C8"/>
</g>
</g>
<path d="M199.698 210.302L209.161 178.801C210.38 174.743 207.281 170.214 202.251 168.703L156.948 155.094C151.917 153.582 146.833 155.654 145.614 159.711L136.151 191.212C134.932 195.27 138.034 199.798 143.065 201.309L188.367 214.918C193.398 216.429 198.479 214.359 199.698 210.302ZM143.242 200.719C138.614 199.329 135.762 195.162 136.883 191.432L146.346 159.931C147.467 156.198 152.143 154.293 156.771 155.684L202.073 169.293C206.699 170.682 209.551 174.849 208.43 178.581L198.967 210.082C197.846 213.813 193.17 215.718 188.544 214.328L143.242 200.719Z" fill="#3F3F46"/>
<path d="M188.544 214.33L143.243 200.721C141.018 200.052 139.099 198.698 137.906 196.958C136.714 195.217 136.346 193.231 136.882 191.436L146.346 159.932C147.467 156.2 152.144 154.295 156.771 155.685L202.073 169.294C206.699 170.684 209.551 174.85 208.43 178.583L198.966 210.086C197.846 213.814 193.17 215.719 188.544 214.33Z" fill="url(#paint5_linear_0_1)"/>
<path d="M137.88 185.896L138.058 185.306L158.919 191.573C160.302 191.987 161.76 191.942 162.975 191.447C164.189 190.952 165.06 190.049 165.397 188.934L168.763 177.728C169.096 176.613 168.868 175.379 168.127 174.297C167.386 173.215 166.194 172.373 164.812 171.956L143.951 165.69L144.128 165.099L164.989 171.366C166.565 171.841 167.925 172.801 168.769 174.035C169.614 175.269 169.875 176.676 169.495 177.948L166.128 189.154C165.745 190.425 164.751 191.455 163.367 192.02C161.982 192.584 160.319 192.635 158.742 192.163L137.88 185.896Z" fill="#383335"/>
<path d="M178.24 192.792L181.606 181.586C181.99 180.315 182.983 179.285 184.368 178.72C185.753 178.156 187.417 178.105 188.994 178.577L207.521 184.143L207.344 184.733L188.816 179.167C187.433 178.753 185.975 178.798 184.76 179.293C183.546 179.788 182.675 180.692 182.338 181.806L178.972 193.012C178.638 194.128 178.867 195.362 179.608 196.444C180.349 197.526 181.541 198.368 182.923 198.784L201.451 204.35L201.274 204.94L182.746 199.374C181.17 198.899 179.81 197.94 178.965 196.706C178.121 195.472 177.86 194.064 178.24 192.792Z" fill="#383335"/>
<path d="M181.726 182.514L181.904 181.924L169.06 178.065L168.883 178.656L181.726 182.514Z" fill="#383335"/>
<path d="M178.674 192.674L178.852 192.084L166.008 188.226L165.831 188.816L178.674 192.674Z" fill="#383335"/>
<path d="M150.642 203.265L154.46 190.555L153.729 190.336L149.911 203.045L150.642 203.265Z" fill="#383335"/>
<path d="M160.531 170.348L164.349 157.639L163.618 157.419L159.799 170.129L160.531 170.348Z" fill="#383335"/>
<path d="M183.056 213.002L186.874 200.293L186.143 200.073L182.325 212.782L183.056 213.002Z" fill="#383335"/>
<path d="M192.944 180.086L196.762 167.376L196.031 167.156L192.213 179.866L192.944 180.086Z" fill="#383335"/>
<path d="M203.959 194.792L204.136 194.202L180.361 187.06L180.184 187.65L203.959 194.792Z" fill="#383335"/>
<path d="M167.108 183.722L167.285 183.132L141.071 175.257L140.893 175.847L167.108 183.722Z" fill="#383335"/>
<path d="M413.054 376.528L404.569 373.979L419.662 342.981L428.148 345.53L413.054 376.528ZM407.221 339.244L392.398 359.23L392.891 354.115L392.891 354.117L394.439 338.603C394.439 338.603 394.975 335.565 391.295 334.46L377.922 330.442L377.599 330.947C377.599 330.947 381.433 333.026 385.356 337.338L384.222 367.867L393.063 370.523L416.353 341.987L407.221 339.244ZM464.17 391.883L471.961 394.224L474.959 359.592L468.138 357.543C464.988 356.596 463.491 358.795 463.491 358.795L441.776 385.156L450.621 387.813L453.844 383.503L464.63 386.744L464.17 391.883ZM458.296 377.55L466.419 366.693L465.263 379.643L458.296 377.55ZM449.875 360.602L453.188 353.967C453.188 353.967 449.879 351.423 445.984 350.253C441.773 348.988 431.221 347.825 428.532 356.774C426.003 365.193 437.708 368.824 436.379 373.246C435.051 377.669 424.762 373.714 422.126 369.881L418.666 376.82C418.666 376.82 421.902 379.799 427.69 381.538C433.481 383.277 443.117 382.903 445.568 374.743C448.114 366.27 436.509 361.923 437.616 358.239C438.724 354.554 446.845 357.51 449.875 360.602Z" fill="#2566AF"/>
<path d="M392.892 354.116L394.439 338.602C394.439 338.602 394.976 335.564 391.296 334.459L377.923 330.441L377.6 330.946C377.6 330.946 383.627 334.209 388.293 341.052C392.755 347.593 392.892 354.116 392.892 354.116Z" fill="#E6A540"/>
<path d="M115.602 261.413L116.08 259.824L116.626 259.989C117.033 260.111 117.389 260.093 117.695 259.936C118.012 259.772 118.229 259.496 118.346 259.106L120.328 252.51L122.069 253.033L120.107 259.565C119.931 260.15 119.65 260.624 119.263 260.989C118.885 261.355 118.426 261.592 117.886 261.697C117.355 261.806 116.776 261.766 116.149 261.577L115.602 261.413ZM126.785 264.939C126.09 264.73 125.479 264.412 124.951 263.986C124.424 263.56 124.001 263.059 123.685 262.483C123.368 261.908 123.172 261.285 123.096 260.616C123.031 259.94 123.102 259.255 123.311 258.56C123.522 257.857 123.84 257.246 124.264 256.727C124.688 256.207 125.19 255.795 125.772 255.489C126.353 255.183 126.98 255.002 127.653 254.946C128.329 254.881 129.018 254.954 129.721 255.165C130.425 255.376 131.04 255.695 131.568 256.122C132.096 256.548 132.518 257.049 132.835 257.625C133.154 258.192 133.347 258.809 133.415 259.475C133.491 260.145 133.423 260.831 133.212 261.535C133.003 262.229 132.681 262.839 132.246 263.365C131.814 263.881 131.307 264.293 130.726 264.598C130.144 264.904 129.516 265.089 128.841 265.154C128.174 265.222 127.489 265.15 126.785 264.939ZM127.259 263.363C127.725 263.503 128.177 263.551 128.615 263.507C129.056 263.454 129.464 263.323 129.842 263.113C130.227 262.906 130.557 262.622 130.832 262.261C131.115 261.902 131.328 261.486 131.471 261.011C131.613 260.537 131.664 260.076 131.622 259.63C131.592 259.177 131.473 258.758 131.266 258.373C131.069 257.981 130.8 257.646 130.459 257.368C130.118 257.09 129.714 256.881 129.248 256.741C128.79 256.604 128.342 256.557 127.904 256.601C127.466 256.645 127.053 256.775 126.665 256.991C126.288 257.201 125.958 257.485 125.674 257.843C125.394 258.193 125.182 258.605 125.04 259.08C124.897 259.554 124.845 260.019 124.884 260.474C124.923 260.929 125.042 261.348 125.241 261.731C125.448 262.117 125.721 262.453 126.06 262.739C126.402 263.017 126.801 263.225 127.259 263.363ZM134.48 267.084L137.325 257.615L143.616 259.505L143.158 261.03L138.595 259.66L137.866 262.087L142.174 263.382L141.716 264.907L137.407 263.612L136.667 266.078L141.229 267.449L140.771 268.974L134.48 267.084ZM143.194 269.702L146.039 260.233L147.767 260.752L145.381 268.696L149.435 269.914L148.977 271.439L143.194 269.702ZM159.105 274.648C158.427 274.444 157.837 274.133 157.335 273.714C156.833 273.295 156.432 272.801 156.132 272.23C155.832 271.66 155.648 271.041 155.581 270.374C155.522 269.71 155.598 269.026 155.809 268.323C156.02 267.62 156.33 267.006 156.737 266.481C157.154 265.951 157.64 265.534 158.194 265.229C158.758 264.918 159.364 264.73 160.012 264.666C160.661 264.594 161.325 264.659 162.003 264.863C162.681 265.066 163.253 265.363 163.718 265.752C164.191 266.144 164.557 266.586 164.815 267.079C165.076 267.564 165.22 268.055 165.246 268.553L163.486 268.828C163.456 268.283 163.275 267.794 162.943 267.362C162.611 266.93 162.14 266.622 161.53 266.439C160.937 266.261 160.369 266.243 159.828 266.385C159.295 266.529 158.827 266.809 158.426 267.224C158.032 267.642 157.736 268.181 157.538 268.842C157.339 269.503 157.292 270.122 157.396 270.698C157.511 271.268 157.755 271.762 158.129 272.179C158.502 272.596 158.986 272.894 159.579 273.072C160.062 273.217 160.535 273.257 160.997 273.193C161.462 273.12 161.87 272.947 162.22 272.674C162.573 272.392 162.822 272.009 162.967 271.526L163.184 270.802L163.766 271.725L160.258 270.671L160.697 269.209L165.146 270.546L164.859 271.499C164.641 272.228 164.324 272.835 163.911 273.32C163.497 273.805 163.021 274.175 162.483 274.429C161.956 274.677 161.4 274.82 160.816 274.857C160.235 274.885 159.665 274.816 159.105 274.648ZM170.703 278.132C170.008 277.923 169.397 277.605 168.869 277.179C168.341 276.753 167.919 276.252 167.603 275.676C167.286 275.101 167.089 274.478 167.013 273.809C166.948 273.133 167.02 272.448 167.229 271.753C167.44 271.05 167.758 270.439 168.182 269.92C168.606 269.4 169.108 268.988 169.69 268.682C170.271 268.376 170.898 268.195 171.571 268.139C172.246 268.074 172.936 268.147 173.639 268.358C174.342 268.569 174.958 268.888 175.486 269.315C176.013 269.741 176.436 270.242 176.752 270.818C177.072 271.385 177.265 272.002 177.333 272.669C177.409 273.338 177.341 274.024 177.13 274.728C176.921 275.422 176.599 276.032 176.164 276.558C175.732 277.074 175.225 277.486 174.644 277.791C174.062 278.097 173.434 278.282 172.758 278.347C172.091 278.415 171.406 278.343 170.703 278.132ZM171.176 276.556C171.642 276.696 172.095 276.744 172.533 276.7C172.973 276.648 173.382 276.516 173.759 276.306C174.145 276.099 174.475 275.815 174.75 275.454C175.033 275.095 175.246 274.679 175.388 274.205C175.531 273.73 175.582 273.27 175.54 272.823C175.51 272.37 175.391 271.951 175.184 271.566C174.987 271.174 174.718 270.839 174.377 270.561C174.035 270.283 173.632 270.074 173.166 269.934C172.708 269.797 172.26 269.75 171.822 269.794C171.384 269.838 170.971 269.968 170.583 270.184C170.206 270.394 169.875 270.678 169.592 271.036C169.312 271.386 169.1 271.798 168.957 272.273C168.815 272.747 168.763 273.212 168.802 273.667C168.841 274.122 168.96 274.541 169.159 274.924C169.366 275.31 169.639 275.646 169.978 275.933C170.319 276.211 170.719 276.418 171.176 276.556ZM178.398 280.277L181.242 270.809L182.589 271.213L185.693 279.794L184.952 279.724L187.101 272.569L188.83 273.088L185.985 282.556L184.626 282.148L181.614 273.539L182.291 273.59L180.126 280.796L178.398 280.277ZM188.237 283.233L188.645 281.873L195.211 276.668L190.89 275.369L191.348 273.844L197.868 275.803L197.459 277.163L190.906 282.372L195.609 283.784L195.15 285.31L188.237 283.233ZM196.615 285.749L202.725 277.262L204.962 277.934L205.384 288.384L203.503 287.819L203.44 285.583L199.78 284.483L198.483 286.311L196.615 285.749ZM200.734 283.107L203.403 283.909L203.243 278.72L203.726 278.865L200.734 283.107ZM207.593 289.048L210.438 279.579L212.166 280.098L209.78 288.042L213.834 289.26L213.376 290.785L207.593 289.048ZM215.65 291.468L218.494 281.999L224.785 283.889L224.327 285.414L219.764 284.043L219.035 286.471L223.344 287.765L222.885 289.29L218.577 287.996L217.836 290.462L222.399 291.832L221.941 293.358L215.65 291.468ZM227.699 295.253C227.097 295.073 226.571 294.795 226.12 294.419C225.678 294.046 225.329 293.609 225.073 293.107C224.829 292.599 224.7 292.057 224.689 291.481L226.312 291.29C226.378 291.901 226.58 292.428 226.918 292.871C227.258 293.306 227.7 293.605 228.242 293.768C228.547 293.859 228.823 293.892 229.072 293.865C229.331 293.832 229.546 293.748 229.715 293.615C229.893 293.483 230.018 293.299 230.089 293.062C230.173 292.782 230.157 292.528 230.041 292.299C229.936 292.064 229.734 291.846 229.434 291.646L227.792 290.515C227.123 290.065 226.671 289.555 226.436 288.985C226.201 288.416 226.176 287.822 226.362 287.203C226.525 286.661 226.8 286.222 227.187 285.885C227.583 285.552 228.053 285.342 228.596 285.255C229.15 285.163 229.736 285.21 230.355 285.396C230.923 285.566 231.413 285.825 231.827 286.171C232.242 286.508 232.566 286.906 232.798 287.363C233.042 287.815 233.177 288.304 233.203 288.829L231.589 289.037C231.545 288.506 231.375 288.058 231.079 287.692C230.785 287.317 230.392 287.056 229.901 286.908C229.612 286.822 229.343 286.796 229.092 286.832C228.844 286.859 228.629 286.942 228.449 287.082C228.279 287.216 228.159 287.401 228.088 287.639C228.009 287.901 228.024 288.16 228.132 288.414C228.243 288.66 228.455 288.89 228.77 289.104L230.347 290.174C231.027 290.646 231.489 291.154 231.732 291.698C231.983 292.245 232.013 292.836 231.823 293.472C231.66 294.014 231.376 294.451 230.972 294.782C230.567 295.113 230.084 295.323 229.521 295.413C228.958 295.503 228.351 295.449 227.699 295.253ZM241.781 299.484C241.086 299.275 240.475 298.958 239.947 298.531C239.419 298.105 238.997 297.604 238.68 297.028C238.363 296.453 238.167 295.83 238.091 295.161C238.026 294.485 238.098 293.8 238.307 293.106C238.518 292.402 238.836 291.791 239.259 291.272C239.683 290.752 240.186 290.34 240.767 290.034C241.349 289.729 241.976 289.547 242.649 289.491C243.324 289.426 244.014 289.499 244.717 289.71C245.42 289.922 246.036 290.24 246.563 290.667C247.091 291.093 247.513 291.594 247.83 292.17C248.149 292.737 248.343 293.354 248.41 294.021C248.486 294.69 248.419 295.376 248.207 296.08C247.999 296.775 247.677 297.385 247.242 297.91C246.81 298.426 246.303 298.838 245.721 299.143C245.14 299.449 244.511 299.634 243.836 299.699C243.169 299.767 242.484 299.695 241.781 299.484ZM242.254 297.908C242.72 298.048 243.172 298.096 243.61 298.052C244.051 298 244.46 297.868 244.837 297.658C245.223 297.451 245.553 297.167 245.828 296.806C246.111 296.448 246.324 296.031 246.466 295.557C246.609 295.082 246.659 294.622 246.618 294.175C246.588 293.723 246.469 293.303 246.261 292.918C246.065 292.526 245.796 292.191 245.454 291.913C245.113 291.635 244.709 291.426 244.243 291.286C243.786 291.149 243.338 291.102 242.9 291.146C242.462 291.19 242.049 291.32 241.66 291.536C241.283 291.746 240.953 292.03 240.67 292.388C240.389 292.738 240.178 293.15 240.035 293.625C239.893 294.099 239.841 294.564 239.88 295.019C239.918 295.474 240.037 295.893 240.236 296.276C240.444 296.662 240.717 296.998 241.056 297.285C241.397 297.563 241.797 297.77 242.254 297.908ZM249.476 301.629L252.32 292.161L253.972 292.657L256.071 298.539L255.283 298.302L260.2 294.528L261.852 295.024L259.008 304.493L257.266 303.97L259.519 296.471L260.143 296.839L255.107 300.55L254.904 300.488L252.835 294.643L253.457 294.65L251.204 302.148L249.476 301.629ZM266.594 306.938C265.899 306.729 265.288 306.412 264.76 305.985C264.232 305.559 263.81 305.058 263.493 304.482C263.176 303.907 262.98 303.284 262.904 302.615C262.839 301.939 262.911 301.254 263.12 300.559C263.331 299.856 263.649 299.245 264.072 298.726C264.496 298.206 264.999 297.794 265.58 297.488C266.162 297.182 266.789 297.001 267.462 296.945C268.137 296.88 268.826 296.953 269.53 297.164C270.233 297.375 270.849 297.694 271.376 298.121C271.904 298.547 272.326 299.048 272.643 299.624C272.962 300.191 273.156 300.808 273.223 301.475C273.299 302.144 273.232 302.83 273.02 303.534C272.812 304.228 272.49 304.838 272.055 305.364C271.623 305.88 271.116 306.292 270.534 306.597C269.953 306.903 269.324 307.088 268.649 307.153C267.982 307.221 267.297 307.149 266.594 306.938ZM267.067 305.362C267.533 305.502 267.985 305.55 268.423 305.506C268.864 305.454 269.273 305.322 269.65 305.112C270.036 304.905 270.366 304.621 270.641 304.26C270.924 303.902 271.137 303.485 271.279 303.011C271.422 302.536 271.472 302.076 271.431 301.629C271.401 301.176 271.282 300.757 271.074 300.372C270.878 299.98 270.609 299.645 270.267 299.367C269.926 299.089 269.522 298.88 269.056 298.74C268.599 298.603 268.151 298.556 267.713 298.6C267.275 298.644 266.862 298.774 266.473 298.99C266.096 299.2 265.766 299.484 265.483 299.842C265.202 300.192 264.991 300.604 264.848 301.079C264.706 301.553 264.654 302.018 264.693 302.473C264.731 302.928 264.85 303.347 265.049 303.73C265.257 304.116 265.53 304.452 265.869 304.739C266.21 305.017 266.61 305.224 267.067 305.362ZM274.289 309.083L277.133 299.615L278.48 300.019L281.584 308.6L280.843 308.53L282.992 301.375L284.721 301.894L281.876 311.362L280.516 310.954L277.504 302.345L278.182 302.396L276.017 309.602L274.289 309.083ZM286.542 312.764L288.928 304.821L286.475 304.084L286.933 302.559L293.542 304.544L293.084 306.069L290.669 305.344L288.283 313.287L286.542 312.764ZM292.908 314.677L295.753 305.208L302.044 307.098L301.586 308.623L297.023 307.252L296.294 309.68L300.602 310.974L300.144 312.499L295.836 311.205L295.095 313.671L299.658 315.041L299.199 316.566L292.908 314.677Z" fill="#18181B"/>
<path opacity="0.5" d="M109.08 284.647L111.925 275.179L115.013 276.106C116.013 276.407 116.82 276.871 117.435 277.499C118.061 278.121 118.471 278.849 118.664 279.683C118.859 280.509 118.817 281.387 118.537 282.319C118.259 283.243 117.809 284.004 117.186 284.602C116.565 285.191 115.821 285.578 114.954 285.76C114.097 285.937 113.168 285.875 112.169 285.575L109.08 284.647ZM111.267 283.641L112.665 284.061C113.309 284.255 113.903 284.29 114.448 284.167C115.004 284.039 115.485 283.777 115.89 283.381C116.298 282.977 116.6 282.449 116.796 281.796C116.994 281.135 117.033 280.528 116.913 279.975C116.793 279.422 116.535 278.942 116.14 278.537C115.752 278.134 115.237 277.836 114.593 277.643L113.195 277.223L111.267 283.641ZM119.644 287.82L122.488 278.352L128.779 280.242L128.321 281.767L123.758 280.396L123.029 282.824L127.338 284.118L126.879 285.643L122.571 284.349L121.83 286.815L126.393 288.185L125.935 289.71L119.644 287.82ZM130.887 291.198L130.427 280.737L132.308 281.302L132.545 289.922L132.176 289.812L137.125 282.749L139.006 283.314L132.87 291.794L130.887 291.198ZM145.124 295.641C144.523 295.46 143.996 295.182 143.546 294.807C143.104 294.434 142.755 293.996 142.499 293.495C142.254 292.987 142.126 292.445 142.114 291.869L143.738 291.677C143.803 292.288 144.005 292.816 144.343 293.259C144.684 293.694 145.125 293.993 145.667 294.155C145.973 294.247 146.249 294.279 146.497 294.252C146.757 294.219 146.971 294.136 147.141 294.002C147.319 293.871 147.443 293.687 147.515 293.449C147.599 293.17 147.583 292.916 147.467 292.687C147.362 292.452 147.159 292.234 146.859 292.033L145.217 290.903C144.549 290.452 144.097 289.942 143.862 289.373C143.626 288.803 143.602 288.209 143.787 287.591C143.95 287.049 144.225 286.609 144.613 286.273C145.009 285.939 145.478 285.729 146.021 285.643C146.576 285.551 147.162 285.598 147.781 285.784C148.348 285.954 148.839 286.212 149.252 286.558C149.668 286.896 149.992 287.293 150.224 287.751C150.467 288.203 150.602 288.691 150.629 289.217L149.015 289.424C148.971 288.894 148.801 288.446 148.504 288.079C148.21 287.705 147.818 287.444 147.326 287.296C147.038 287.209 146.769 287.184 146.518 287.219C146.27 287.246 146.055 287.33 145.875 287.47C145.705 287.603 145.585 287.789 145.513 288.026C145.434 288.289 145.449 288.547 145.558 288.802C145.669 289.047 145.881 289.278 146.195 289.492L147.772 290.562C148.453 291.034 148.914 291.542 149.157 292.086C149.409 292.633 149.439 293.224 149.248 293.859C149.085 294.402 148.802 294.838 148.397 295.17C147.993 295.501 147.51 295.711 146.947 295.801C146.384 295.89 145.777 295.837 145.124 295.641ZM155.792 298.846C155.097 298.637 154.486 298.32 153.958 297.893C153.431 297.467 153.008 296.966 152.692 296.39C152.375 295.815 152.178 295.192 152.102 294.523C152.037 293.847 152.109 293.162 152.318 292.468C152.529 291.764 152.847 291.153 153.271 290.634C153.695 290.114 154.197 289.702 154.779 289.396C155.36 289.091 155.987 288.909 156.66 288.853C157.336 288.788 158.025 288.861 158.728 289.072C159.431 289.284 160.047 289.602 160.575 290.029C161.102 290.455 161.525 290.956 161.841 291.532C162.161 292.099 162.354 292.716 162.422 293.383C162.498 294.052 162.43 294.738 162.219 295.442C162.01 296.137 161.688 296.747 161.253 297.272C160.821 297.788 160.314 298.2 159.733 298.505C159.151 298.811 158.523 298.996 157.847 299.061C157.18 299.129 156.495 299.057 155.792 298.846ZM156.266 297.27C156.732 297.41 157.184 297.458 157.622 297.414C158.062 297.362 158.471 297.23 158.848 297.02C159.234 296.813 159.564 296.529 159.839 296.168C160.122 295.81 160.335 295.393 160.478 294.919C160.62 294.444 160.671 293.984 160.629 293.537C160.599 293.085 160.48 292.665 160.273 292.28C160.076 291.888 159.807 291.553 159.466 291.275C159.124 290.997 158.721 290.788 158.255 290.648C157.797 290.511 157.349 290.464 156.911 290.508C156.473 290.552 156.06 290.682 155.672 290.898C155.295 291.108 154.964 291.392 154.681 291.75C154.401 292.1 154.189 292.512 154.047 292.987C153.904 293.461 153.852 293.926 153.891 294.381C153.93 294.836 154.049 295.255 154.248 295.638C154.455 296.024 154.728 296.36 155.067 296.647C155.409 296.925 155.808 297.132 156.266 297.27ZM163.487 300.991L166.331 291.523L168.06 292.042L165.674 299.985L169.728 301.203L169.27 302.728L163.487 300.991ZM174.897 304.585C174.168 304.366 173.566 304.019 173.09 303.543C172.622 303.07 172.307 302.518 172.146 301.888C171.984 301.257 172.005 300.603 172.209 299.925L174.038 293.838L175.766 294.357L173.964 300.356C173.847 300.745 173.826 301.123 173.901 301.487C173.985 301.854 174.153 302.172 174.404 302.442C174.658 302.703 174.98 302.892 175.37 303.009C175.768 303.129 176.141 303.148 176.489 303.068C176.847 302.982 177.158 302.807 177.422 302.545C177.694 302.284 177.889 301.96 178.006 301.57L179.808 295.571L181.536 296.09L179.707 302.178C179.504 302.856 179.161 303.413 178.679 303.85C178.196 304.287 177.625 304.573 176.966 304.708C176.315 304.845 175.625 304.804 174.897 304.585ZM183.251 306.928L185.637 298.985L183.184 298.248L183.642 296.723L190.251 298.708L189.793 300.233L187.378 299.508L184.992 307.451L183.251 306.928ZM189.617 308.841L192.461 299.372L194.19 299.891L191.345 309.36L189.617 308.841ZM198.94 311.808C198.246 311.599 197.634 311.281 197.107 310.855C196.579 310.429 196.157 309.928 195.84 309.352C195.523 308.777 195.327 308.154 195.251 307.485C195.186 306.809 195.258 306.124 195.466 305.429C195.678 304.726 195.995 304.115 196.419 303.596C196.843 303.076 197.346 302.664 197.927 302.358C198.508 302.052 199.136 301.871 199.808 301.815C200.484 301.75 201.173 301.823 201.876 302.034C202.58 302.245 203.195 302.564 203.723 302.991C204.251 303.417 204.673 303.918 204.99 304.494C205.309 305.061 205.502 305.678 205.57 306.345C205.646 307.014 205.578 307.7 205.367 308.404C205.158 309.098 204.836 309.708 204.402 310.234C203.969 310.75 203.462 311.162 202.881 311.467C202.299 311.773 201.671 311.958 200.996 312.023C200.329 312.091 199.644 312.019 198.94 311.808ZM199.414 310.232C199.88 310.372 200.332 310.42 200.77 310.376C201.211 310.324 201.62 310.192 201.997 309.982C202.382 309.775 202.713 309.491 202.987 309.13C203.27 308.771 203.483 308.355 203.626 307.881C203.768 307.406 203.819 306.946 203.778 306.499C203.747 306.046 203.628 305.627 203.421 305.242C203.224 304.85 202.955 304.515 202.614 304.237C202.273 303.959 201.869 303.75 201.403 303.61C200.945 303.473 200.498 303.426 200.059 303.47C199.621 303.514 199.208 303.644 198.82 303.86C198.443 304.07 198.113 304.354 197.83 304.712C197.549 305.062 197.337 305.474 197.195 305.949C197.052 306.423 197 306.888 197.039 307.343C197.078 307.798 197.197 308.217 197.396 308.6C197.603 308.986 197.877 309.322 198.215 309.609C198.557 309.887 198.956 310.094 199.414 310.232ZM206.635 313.953L209.48 304.485L210.827 304.889L213.93 313.47L213.189 313.4L215.339 306.245L217.067 306.764L214.223 316.232L212.863 315.824L209.851 307.215L210.529 307.266L208.364 314.472L206.635 313.953ZM220.546 318.298C219.944 318.117 219.418 317.839 218.968 317.464C218.525 317.091 218.176 316.653 217.921 316.152C217.676 315.644 217.548 315.102 217.536 314.526L219.159 314.334C219.225 314.945 219.427 315.473 219.765 315.916C220.106 316.351 220.547 316.65 221.089 316.812C221.394 316.904 221.671 316.936 221.919 316.909C222.179 316.876 222.393 316.793 222.562 316.659C222.74 316.528 222.865 316.344 222.936 316.106C223.02 315.827 223.004 315.573 222.888 315.344C222.783 315.109 222.581 314.891 222.281 314.69L220.639 313.56C219.971 313.109 219.519 312.6 219.284 312.03C219.048 311.46 219.023 310.866 219.209 310.248C219.372 309.706 219.647 309.266 220.035 308.93C220.43 308.596 220.9 308.386 221.443 308.3C221.997 308.208 222.584 308.255 223.202 308.441C223.77 308.611 224.261 308.869 224.674 309.215C225.09 309.553 225.414 309.95 225.646 310.408C225.889 310.86 226.024 311.348 226.051 311.874L224.436 312.081C224.393 311.551 224.222 311.103 223.926 310.736C223.632 310.362 223.239 310.101 222.748 309.953C222.46 309.867 222.19 309.841 221.94 309.876C221.691 309.904 221.477 309.987 221.296 310.127C221.127 310.26 221.006 310.446 220.935 310.683C220.856 310.946 220.871 311.204 220.979 311.459C221.09 311.704 221.303 311.935 221.617 312.149L223.194 313.219C223.874 313.691 224.336 314.199 224.579 314.743C224.831 315.29 224.861 315.881 224.67 316.516C224.507 317.059 224.223 317.495 223.819 317.827C223.415 318.158 222.931 318.368 222.369 318.458C221.806 318.547 221.198 318.494 220.546 318.298Z" fill="#18181B"/>
<path d="M332.241 147.882L342.96 134.474L345.603 135.269L334.884 148.676L332.241 147.882Z" fill="#F43F5E"/>
<path d="M351.611 151.524C350.736 151.261 349.971 150.857 349.315 150.311C348.672 149.768 348.164 149.132 347.792 148.402C347.436 147.664 347.25 146.875 347.233 146.037L349.594 145.759C349.69 146.648 349.984 147.414 350.475 148.059C350.97 148.692 351.612 149.126 352.401 149.363C352.845 149.497 353.247 149.544 353.608 149.504C353.986 149.456 354.298 149.335 354.544 149.14C354.803 148.949 354.984 148.681 355.088 148.336C355.21 147.93 355.187 147.56 355.018 147.227C354.865 146.885 354.571 146.569 354.135 146.276L351.747 144.632C350.774 143.977 350.117 143.235 349.775 142.407C349.432 141.578 349.396 140.714 349.667 139.815C349.904 139.026 350.304 138.387 350.867 137.898C351.443 137.413 352.126 137.107 352.916 136.982C353.722 136.848 354.575 136.916 355.475 137.186C356.301 137.434 357.014 137.81 357.615 138.313C358.22 138.804 358.692 139.382 359.029 140.048C359.383 140.705 359.579 141.415 359.618 142.179L357.27 142.482C357.206 141.71 356.959 141.058 356.527 140.525C356.1 139.98 355.529 139.601 354.814 139.386C354.395 139.26 354.003 139.223 353.638 139.275C353.277 139.314 352.965 139.435 352.702 139.638C352.456 139.833 352.281 140.103 352.177 140.448C352.062 140.83 352.084 141.206 352.241 141.576C352.403 141.933 352.712 142.268 353.169 142.58L355.463 144.136C356.452 144.823 357.124 145.562 357.477 146.353C357.843 147.149 357.887 148.008 357.61 148.933C357.373 149.721 356.96 150.357 356.372 150.838C355.784 151.32 355.081 151.626 354.262 151.756C353.444 151.887 352.56 151.809 351.611 151.524ZM360.924 154.08L369.812 141.735L373.066 142.712L373.679 157.912L370.943 157.09L370.852 153.838L365.528 152.238L363.641 154.896L360.924 154.08ZM366.915 150.237L370.797 151.403L370.565 143.856L371.268 144.067L366.915 150.237ZM381.527 160.269L380.857 145.053L383.593 145.875L383.938 158.414L383.402 158.253L390.6 147.98L393.336 148.801L384.41 161.136L381.527 160.269ZM394.204 164.078L398.341 150.305L400.855 151.06L396.718 164.833L394.204 164.078ZM402.833 166.67L406.971 152.897L408.93 153.486L413.444 165.968L412.366 165.865L415.493 155.458L418.007 156.213L413.87 169.985L411.892 169.391L407.511 156.869L408.496 156.943L405.348 167.425L402.833 166.67ZM426.461 174.01C425.475 173.713 424.617 173.261 423.886 172.652C423.155 172.042 422.572 171.323 422.136 170.493C421.7 169.664 421.433 168.764 421.335 167.794C421.249 166.827 421.359 165.833 421.667 164.81C421.974 163.787 422.424 162.894 423.016 162.131C423.623 161.36 424.33 160.753 425.135 160.309C425.956 159.857 426.837 159.584 427.779 159.491C428.725 159.385 429.69 159.481 430.676 159.777C431.662 160.073 432.493 160.504 433.17 161.07C433.859 161.64 434.391 162.283 434.767 163.001C435.146 163.706 435.355 164.42 435.393 165.144L432.834 165.544C432.789 164.752 432.526 164.041 432.043 163.412C431.56 162.783 430.875 162.336 429.988 162.069C429.125 161.81 428.3 161.784 427.512 161.991C426.737 162.201 426.057 162.608 425.472 163.212C424.9 163.819 424.47 164.604 424.181 165.565C423.892 166.526 423.823 167.426 423.975 168.264C424.142 169.094 424.497 169.812 425.041 170.419C425.584 171.025 426.287 171.458 427.15 171.717C427.852 171.928 428.54 171.987 429.213 171.894C429.89 171.788 430.483 171.536 430.992 171.138C431.505 170.728 431.867 170.172 432.078 169.469L432.394 168.415L433.241 169.758L428.138 168.225L428.777 166.099L435.247 168.043L434.831 169.429C434.512 170.489 434.052 171.372 433.45 172.078C432.849 172.784 432.156 173.322 431.374 173.692C430.607 174.052 429.799 174.26 428.95 174.314C428.104 174.355 427.275 174.254 426.461 174.01ZM443.249 179.053C442.374 178.79 441.609 178.385 440.953 177.839C440.31 177.297 439.802 176.66 439.43 175.93C439.074 175.192 438.888 174.404 438.871 173.566L441.232 173.287C441.328 174.176 441.622 174.943 442.113 175.588C442.608 176.22 443.25 176.655 444.039 176.892C444.483 177.025 444.885 177.072 445.246 177.033C445.624 176.985 445.936 176.864 446.182 176.669C446.441 176.478 446.622 176.21 446.726 175.865C446.848 175.458 446.825 175.088 446.656 174.755C446.503 174.414 446.209 174.097 445.773 173.805L443.385 172.16C442.412 171.505 441.755 170.764 441.413 169.935C441.07 169.107 441.034 168.243 441.305 167.343C441.542 166.555 441.942 165.916 442.505 165.426C443.081 164.941 443.764 164.636 444.554 164.51C445.36 164.376 446.213 164.444 447.113 164.715C447.939 164.963 448.652 165.338 449.253 165.841C449.858 166.332 450.33 166.91 450.667 167.576C451.021 168.233 451.217 168.944 451.256 169.708L448.908 170.01C448.844 169.239 448.597 168.587 448.165 168.054C447.738 167.509 447.167 167.129 446.452 166.914C446.033 166.789 445.641 166.751 445.276 166.803C444.915 166.842 444.603 166.964 444.341 167.167C444.094 167.362 443.919 167.631 443.815 167.977C443.7 168.359 443.722 168.735 443.879 169.104C444.041 169.462 444.35 169.797 444.807 170.109L447.101 171.664C448.091 172.351 448.762 173.09 449.115 173.882C449.481 174.677 449.525 175.537 449.248 176.461C449.011 177.25 448.598 177.885 448.01 178.367C447.422 178.848 446.719 179.155 445.9 179.285C445.082 179.415 444.198 179.338 443.249 179.053ZM460.586 184.019L464.723 170.246L470.528 171.99C471.44 172.264 472.168 172.658 472.713 173.171C473.273 173.675 473.639 174.269 473.81 174.952C473.997 175.626 473.969 176.37 473.724 177.183C473.535 177.812 473.185 178.351 472.673 178.802C472.178 179.245 471.507 179.533 470.66 179.669L471.01 178.504C471.61 178.966 472.05 179.448 472.329 179.948C472.609 180.449 472.758 180.957 472.778 181.474C472.797 181.99 472.729 182.507 472.574 183.025C472.178 184.344 471.429 185.248 470.328 185.736C469.244 186.217 467.931 186.225 466.39 185.763L460.586 184.019ZM463.766 182.556L467.316 183.622C467.969 183.818 468.54 183.795 469.029 183.552C469.535 183.301 469.878 182.874 470.06 182.27C470.241 181.666 470.19 181.12 469.907 180.632C469.636 180.147 469.174 179.807 468.521 179.611L464.971 178.544L463.766 182.556ZM465.632 176.344L469.052 177.372C469.57 177.527 470.027 177.503 470.424 177.3C470.825 177.085 471.097 176.736 471.242 176.256C471.386 175.775 471.347 175.347 471.124 174.971C470.901 174.595 470.53 174.329 470.013 174.174L466.593 173.146L465.632 176.344ZM475.706 188.561L484.594 176.216L487.848 177.193L488.461 192.393L485.725 191.571L485.634 188.319L480.31 186.72L478.423 189.377L475.706 188.561ZM481.698 184.718L485.58 185.884L485.348 178.337L486.05 178.548L481.698 184.718ZM493.46 193.895L497.598 180.122L499.557 180.711L504.071 193.192L502.993 193.09L506.12 182.682L508.634 183.438L504.497 197.21L502.519 196.616L498.138 184.094L499.123 184.168L495.975 194.65L493.46 193.895ZM510.629 199.052L514.766 185.28L517.281 186.035L515.126 193.208L514.514 192.762L522.457 187.59L525.618 188.54L518.173 193.398L518.854 191.667L521.647 202.362L518.689 201.474L516.813 194.299L514.304 195.944L513.143 199.807L510.629 199.052Z" fill="#18181B"/>
<defs>
<filter id="filter0_f_0_1" x="206.983" y="237.719" width="555.717" height="428.297" filterUnits="userSpaceOnUse" color-interpolation-filters="sRGB">
<feFlood flood-opacity="0" result="BackgroundImageFix"/>
<feBlend mode="normal" in="SourceGraphic" in2="BackgroundImageFix" result="shape"/>
<feGaussianBlur stdDeviation="39.3022" result="effect1_foregroundBlur_0_1"/>
</filter>
<filter id="filter1_f_0_1" x="-156.73" y="-65.857" width="884.889" height="884.889" filterUnits="userSpaceOnUse" color-interpolation-filters="sRGB">
<feFlood flood-opacity="0" result="BackgroundImageFix"/>
<feBlend mode="normal" in="SourceGraphic" in2="BackgroundImageFix" result="shape"/>
<feGaussianBlur stdDeviation="170.684" result="effect1_foregroundBlur_0_1"/>
</filter>
<filter id="filter2_f_0_1" x="248.211" y="84.0516" width="884.889" height="884.889" filterUnits="userSpaceOnUse" color-interpolation-filters="sRGB">
<feFlood flood-opacity="0" result="BackgroundImageFix"/>
<feBlend mode="normal" in="SourceGraphic" in2="BackgroundImageFix" result="shape"/>
<feGaussianBlur stdDeviation="170.684" result="effect1_foregroundBlur_0_1"/>
</filter>
<filter id="filter3_f_0_1" x="23.6481" y="0.525528" width="589.293" height="477.526" filterUnits="userSpaceOnUse" color-interpolation-filters="sRGB">
<feFlood flood-opacity="0" result="BackgroundImageFix"/>
<feBlend mode="normal" in="SourceGraphic" in2="BackgroundImageFix" result="shape"/>
<feGaussianBlur stdDeviation="42.2244" result="effect1_foregroundBlur_0_1"/>
</filter>
<filter id="filter4_d_0_1" x="0.473473" y="23.6786" width="636.793" height="529.287" filterUnits="userSpaceOnUse" color-interpolation-filters="sRGB">
<feFlood flood-opacity="0" result="BackgroundImageFix"/>
<feColorMatrix in="SourceAlpha" type="matrix" values="0 0 0 0 0 0 0 0 0 0 0 0 0 0 0 0 0 0 127 0" result="hardAlpha"/>
<feOffset dy="51.2051"/>
<feGaussianBlur stdDeviation="36.9815"/>
<feComposite in2="hardAlpha" operator="out"/>
<feColorMatrix type="matrix" values="0 0 0 0 0.1375 0 0 0 0 0.155242 0 0 0 0 0.4125 0 0 0 0.08 0"/>
<feBlend mode="normal" in2="BackgroundImageFix" result="effect1_dropShadow_0_1"/>
<feBlend mode="normal" in="SourceGraphic" in2="effect1_dropShadow_0_1" result="shape"/>
</filter>
<filter id="filter5_f_0_1" x="-319.529" y="-399.958" width="950.71" height="950.71" filterUnits="userSpaceOnUse" color-interpolation-filters="sRGB">
<feFlood flood-opacity="0" result="BackgroundImageFix"/>
<feBlend mode="normal" in="SourceGraphic" in2="BackgroundImageFix" result="shape"/>
<feGaussianBlur stdDeviation="183.375" result="effect1_foregroundBlur_0_1"/>
</filter>
<filter id="filter6_f_0_1" x="3.78079" y="-67.2752" width="950.71" height="950.71" filterUnits="userSpaceOnUse" color-interpolation-filters="sRGB">
<feFlood flood-opacity="0" result="BackgroundImageFix"/>
<feBlend mode="normal" in="SourceGraphic" in2="BackgroundImageFix" result="shape"/>
<feGaussianBlur stdDeviation="183.375" result="effect1_foregroundBlur_0_1"/>
</filter>
<linearGradient id="paint0_linear_0_1" x1="682.074" y1="637.716" x2="1050.95" y2="637.716" gradientUnits="userSpaceOnUse">
<stop stop-color="#4484FF"/>
<stop offset="0.234375" stop-color="#44B0FF"/>
<stop offset="0.489583" stop-color="#FF44EC"/>
<stop offset="0.739583" stop-color="#44A5FF"/>
<stop offset="1" stop-color="#F2FF5E"/>
</linearGradient>
<linearGradient id="paint1_linear_0_1" x1="543.8" y1="608.222" x2="252.963" y2="331.983" gradientUnits="userSpaceOnUse">
<stop offset="0.507336"/>
<stop offset="1" stop-opacity="0"/>
</linearGradient>
<linearGradient id="paint2_linear_0_1" x1="339.65" y1="435.176" x2="350.684" y2="506.588" gradientUnits="userSpaceOnUse">
<stop stop-color="#F3EC58"/>
<stop offset="0.4" stop-color="#F6CA45"/>
<stop offset="0.77" stop-color="#F9B036"/>
<stop offset="1" stop-color="#FAA631"/>
</linearGradient>
<linearGradient id="paint3_linear_0_1" x1="166.245" y1="189.613" x2="541.921" y2="189.613" gradientUnits="userSpaceOnUse">
<stop stop-color="#44BCFF"/>
<stop offset="0.234375" stop-color="#44B0FF"/>
<stop offset="0.489583" stop-color="#FF44EC"/>
<stop offset="0.739583" stop-color="#FF44EC"/>
<stop offset="1" stop-color="#FF675E"/>
</linearGradient>
<linearGradient id="paint4_linear_0_1" x1="446.864" y1="318.268" x2="134.403" y2="21.491" gradientUnits="userSpaceOnUse">
<stop offset="0.507336" stop-color="white"/>
<stop offset="1" stop-color="white" stop-opacity="0"/>
</linearGradient>
<linearGradient id="paint5_linear_0_1" x1="181.023" y1="157.158" x2="158.688" y2="231.508" gradientUnits="userSpaceOnUse">
<stop stop-color="#F3EC58"/>
<stop offset="0.4" stop-color="#F6CA45"/>
<stop offset="0.77" stop-color="#F9B036"/>
<stop offset="1" stop-color="#FAA631"/>
</linearGradient>
</defs>
</svg>
