<svg width="170" height="28" viewBox="0 0 170 28" fill="none" xmlns="http://www.w3.org/2000/svg">
<path d="M0.48 27.1L10.44 2.35H14.73L4.77 27.1H0.48Z" fill="#F43F5E"/>
<path d="M28.3158 23.86C26.8958 23.86 25.5758 23.6 24.3558 23.08C23.1558 22.56 22.1158 21.84 21.2358 20.92C20.3758 19.98 19.7458 18.89 19.3458 17.65L22.7358 16.18C23.2758 17.46 24.0558 18.47 25.0758 19.21C26.0958 19.93 27.2458 20.29 28.5258 20.29C29.2458 20.29 29.8658 20.18 30.3858 19.96C30.9258 19.72 31.3358 19.4 31.6158 19C31.9158 18.6 32.0658 18.12 32.0658 17.56C32.0658 16.9 31.8658 16.36 31.4658 15.94C31.0858 15.5 30.5058 15.16 29.7258 14.92L25.4358 13.54C23.6958 13 22.3858 12.19 21.5058 11.11C20.6258 10.03 20.1858 8.76 20.1858 7.3C20.1858 6.02 20.4958 4.89 21.1158 3.91C21.7558 2.93 22.6358 2.17 23.7558 1.63C24.8958 1.07 26.1958 0.789999 27.6558 0.789999C28.9958 0.789999 30.2258 1.03 31.3458 1.51C32.4658 1.97 33.4258 2.62 34.2258 3.46C35.0458 4.28 35.6558 5.25 36.0558 6.37L32.6958 7.87C32.2558 6.75 31.5958 5.89 30.7158 5.29C29.8358 4.67 28.8158 4.36 27.6558 4.36C26.9758 4.36 26.3758 4.48 25.8558 4.72C25.3358 4.94 24.9258 5.26 24.6258 5.68C24.3458 6.08 24.2058 6.56 24.2058 7.12C24.2058 7.74 24.4058 8.29 24.8058 8.77C25.2058 9.23 25.8158 9.59 26.6358 9.85L30.7458 11.14C32.5258 11.72 33.8558 12.52 34.7358 13.54C35.6358 14.56 36.0858 15.82 36.0858 17.32C36.0858 18.6 35.7558 19.73 35.0958 20.71C34.4358 21.69 33.5258 22.46 32.3658 23.02C31.2058 23.58 29.8558 23.86 28.3158 23.86ZM40.6952 23.5L48.4052 1.15H53.6852L61.3952 23.5H56.9552L55.3652 18.7H46.7252L45.1052 23.5H40.6952ZM47.8952 15.1H54.1952L50.4752 3.97H51.6152L47.8952 15.1ZM71.505 23.5L63.705 1.15H68.145L74.265 19.66H73.395L79.515 1.15H83.955L76.185 23.5H71.505ZM89.453 23.5V1.15H93.533V23.5H89.453ZM100.832 23.5V1.15H104.012L116.312 17.71L114.662 18.04V1.15H118.742V23.5H115.532L103.412 6.82L104.912 6.49V23.5H100.832ZM136.658 23.86C135.058 23.86 133.578 23.57 132.218 22.99C130.858 22.41 129.668 21.6 128.648 20.56C127.628 19.52 126.828 18.3 126.248 16.9C125.688 15.5 125.408 13.97 125.408 12.31C125.408 10.65 125.678 9.12 126.218 7.72C126.778 6.3 127.558 5.08 128.558 4.06C129.578 3.02 130.768 2.22 132.128 1.66C133.488 1.08 134.968 0.789999 136.568 0.789999C138.168 0.789999 139.598 1.06 140.858 1.6C142.138 2.14 143.218 2.86 144.098 3.76C144.978 4.64 145.608 5.61 145.988 6.67L142.358 8.41C141.938 7.25 141.228 6.31 140.228 5.59C139.228 4.87 138.008 4.51 136.568 4.51C135.168 4.51 133.928 4.84 132.848 5.5C131.788 6.16 130.958 7.07 130.358 8.23C129.778 9.39 129.488 10.75 129.488 12.31C129.488 13.87 129.788 15.24 130.388 16.42C131.008 17.58 131.858 18.49 132.938 19.15C134.018 19.81 135.258 20.14 136.658 20.14C137.798 20.14 138.848 19.92 139.808 19.48C140.768 19.02 141.538 18.38 142.118 17.56C142.698 16.72 142.988 15.73 142.988 14.59V12.88L144.848 14.5H136.568V11.05H147.068V13.3C147.068 15.02 146.778 16.54 146.198 17.86C145.618 19.18 144.828 20.29 143.828 21.19C142.848 22.07 141.738 22.74 140.498 23.2C139.258 23.64 137.978 23.86 136.658 23.86ZM161.277 23.86C159.857 23.86 158.537 23.6 157.317 23.08C156.117 22.56 155.077 21.84 154.197 20.92C153.337 19.98 152.707 18.89 152.307 17.65L155.697 16.18C156.237 17.46 157.017 18.47 158.037 19.21C159.057 19.93 160.207 20.29 161.487 20.29C162.207 20.29 162.827 20.18 163.347 19.96C163.887 19.72 164.297 19.4 164.577 19C164.877 18.6 165.027 18.12 165.027 17.56C165.027 16.9 164.827 16.36 164.427 15.94C164.047 15.5 163.467 15.16 162.687 14.92L158.397 13.54C156.657 13 155.347 12.19 154.467 11.11C153.587 10.03 153.147 8.76 153.147 7.3C153.147 6.02 153.457 4.89 154.077 3.91C154.717 2.93 155.597 2.17 156.717 1.63C157.857 1.07 159.157 0.789999 160.617 0.789999C161.957 0.789999 163.187 1.03 164.307 1.51C165.427 1.97 166.387 2.62 167.187 3.46C168.007 4.28 168.617 5.25 169.017 6.37L165.657 7.87C165.217 6.75 164.557 5.89 163.677 5.29C162.797 4.67 161.777 4.36 160.617 4.36C159.937 4.36 159.337 4.48 158.817 4.72C158.297 4.94 157.887 5.26 157.587 5.68C157.307 6.08 157.167 6.56 157.167 7.12C157.167 7.74 157.367 8.29 157.767 8.77C158.167 9.23 158.777 9.59 159.597 9.85L163.707 11.14C165.487 11.72 166.817 12.52 167.697 13.54C168.597 14.56 169.047 15.82 169.047 17.32C169.047 18.6 168.717 19.73 168.057 20.71C167.397 21.69 166.487 22.46 165.327 23.02C164.167 23.58 162.817 23.86 161.277 23.86Z" fill="#18181B"/>
</svg>
